<svg xmlns="http://www.w3.org/2000/svg" viewBox="0 0 44.23 72.09"><defs><style>.cls-1{opacity:0.5;}.cls-2{fill:#bb7f66;}</style></defs><g id="Layer_2" data-name="Layer 2"><g id="Layer_1-2" data-name="Layer 1"><g class="cls-1"><path class="cls-2" d="M43.7,39.69c-.08-2.56-.24-5.12-.32-7.76-.08-1.76.4-4.32-.32-5.92-.64-1.44-3-3-4.24-4.16-1.84-1.68-3.6-3.36-5.44-5-.64-4.56-2.88-8.8-7.84-9.36-.32,0-.56-.08-.88-.08-.48-2.72-1.52-5.52-4.16-6.8-2.88-1.44-6.16,0-7.92,2.56-2.72,3.84-1.52,8.72-2.24,13-.72.8-1.44,1.52-2.24,2.32-1-.72-1.84-1.52-2.8-2.24a1.16,1.16,0,0,0-1.68,0c-.8,1-1.6,2-2.4,3a1.43,1.43,0,0,0-.4.56,1.38,1.38,0,0,0-.08.8C.66,28.81.58,37.05.42,45.29.34,49.45.34,53.69.26,57.85c0,2.15-.8,5.43.4,7.19.72,1,2.88,2.24,3.84,3.28.64.72,1.2,2,1.92,2.72a1.16,1.16,0,0,0,1.52.72c1,.08,2.08-.16,3-.16,2.08-.08,4.24-.08,6.32-.16,8.48-.08,16.88.08,25.36.64a1.18,1.18,0,0,0,1.2-1.2C44.58,60.57,44.18,50.09,43.7,39.69ZM37.54,23.77c-.72.64-1.36,1.36-2.08,1.92-.72-.64-1.36-1.28-2.08-1.92a25,25,0,0,0,.32-3.52c.8.72,1.6,1.52,2.4,2.24A7.48,7.48,0,0,0,37.54,23.77Zm-9.36,1.44c-.64-.72-1.28-1.44-1.84-2.16a1.16,1.16,0,0,0-1.68,0c-.72.72-1.44,1.52-2.16,2.32a31.35,31.35,0,0,0-2-2.56,1.67,1.67,0,0,0-.48-.32c0-.8-.08-1.76-.08-2.72a18.46,18.46,0,0,1,1.52,1.12,1.23,1.23,0,0,0,1.68,0c.8-.88,1.6-1.76,2.48-2.56l2.24,2a1.16,1.16,0,0,0,1.68,0A15.62,15.62,0,0,1,31.38,19a18.89,18.89,0,0,1-.16,3.76c-.16.08-.24.16-.4.24C29.86,23.77,29,24.49,28.18,25.21Zm-5-12.72c.08,1,.64,3.44.16,4.4a.72.72,0,0,0-.08.4c-.4.4-.72.8-1.12,1.2a12.87,12.87,0,0,0-2.24-1.36c.16-3.12.8-6,3.12-7A21.13,21.13,0,0,0,23.14,12.49ZM31,16.09a1.67,1.67,0,0,0-.32.48c-.64.48-1.36.88-2,1.36-.8-.72-1.6-1.36-2.4-2.08a.69.69,0,0,0-.48-.24,50.27,50.27,0,0,0-.56-5.36.6.6,0,0,0-.08-.4C28.66,10.09,30.34,12.89,31,16.09ZM20.74,3.53a8.35,8.35,0,0,1,1.84,4.08c-3.44,1-4.56,4.64-4.88,8.56a1.2,1.2,0,0,0-.88.32c-.48.48-.88,1-1.36,1.52A18.08,18.08,0,0,0,13,16.17c.24-2.08.16-4.24.32-6.32C13.46,6.49,16.42-.87,20.74,3.53ZM7.54,21a1.16,1.16,0,0,0,1.68,0c.8-.88,1.68-1.76,2.56-2.64h0a11.11,11.11,0,0,1,2.8,2.32,1.16,1.16,0,0,0,1.68,0c.4-.48.8-1,1.2-1.36v4.48c-.72.64-1.44,1.2-2.24,1.84-.72-.8-1.52-1.6-2.24-2.4a1.23,1.23,0,0,0-1.68,0c-.88.72-1.76,1.44-2.64,2.08-1.6-1.76-3.2-3.6-4.88-5.28l1-1.28C5.7,19.45,6.66,20.17,7.54,21ZM6.42,66.64c-.8-.88-2.4-1.76-3-2.72C1.94,61.53,3,56.73,3,53.85c.08-3.68.08-7.36.16-11L3.38,23c1.28,1.36,2.56,2.72,3.84,4-.16,13.28-.32,26.64-.56,39.91C6.58,66.8,6.5,66.73,6.42,66.64ZM20.58,69c-2.08,0-4.24,0-6.32.08-1.36,0-3.36.48-4.72.16-.16-.08-.32-.08-.48-.16.16-13.83.4-27.67.56-41.51l2.56-2.08c.72.8,1.52,1.6,2.24,2.4a1.21,1.21,0,0,0,1.44.16c1-.8,2.08-1.6,3-2.48a.91.91,0,0,0,.64-.24,31.35,31.35,0,0,0,2,2.56,1.16,1.16,0,0,0,1.68,0c.72-.8,1.44-1.52,2.16-2.32.56.72,1.2,1.36,1.76,2.08a1.23,1.23,0,0,0,1.68,0c.88-.8,1.76-1.52,2.72-2.32l3,2.72a1.23,1.23,0,0,0,1.68,0,34.07,34.07,0,0,0,3-2.8,6.53,6.53,0,0,1,1.6,2.64c.56,2.32.16,5.36.32,7.76s.24,4.64.32,7c.4,9,.64,18,.16,26.95C34.66,69.28,27.62,69,20.58,69Z"/></g></g></g></svg>