<?xml version="1.0" encoding="utf-8"?>
<!-- Generator: Adobe Illustrator 16.0.0, SVG Export Plug-In . SVG Version: 6.00 Build 0)  -->
<!DOCTYPE svg PUBLIC "-//W3C//DTD SVG 1.0//EN" "http://www.w3.org/TR/2001/REC-SVG-20010904/DTD/svg10.dtd">
<svg version="1.0"
	 id="Layer_1" xmlns:svg="http://www.w3.org/2000/svg" xmlns:dc="http://purl.org/dc/elements/1.1/" xmlns:rdf="http://www.w3.org/1999/02/22-rdf-syntax-ns#" xmlns:cc="http://creativecommons.org/ns#" xmlns:inkscape="http://www.inkscape.org/namespaces/inkscape" xmlns:sodipodi="http://sodipodi.sourceforge.net/DTD/sodipodi-0.dtd"
	 xmlns="http://www.w3.org/2000/svg" xmlns:xlink="http://www.w3.org/1999/xlink" x="0px" y="0px" width="595.28px" height="512px"
	 viewBox="0 98.45 595.28 512" style="enable-background:new 0 98.45 595.28 512;" xml:space="preserve">
<g transform="translate(0,-952.36218)">
	<path d="M505.99,1108.41c16.44,0,29.76,13.33,29.76,29.76s-13.33,29.76-29.76,29.76H89.29c-16.44,0-29.76-13.33-29.76-29.76
		s13.33-29.76,29.76-29.76H505.99z M505.99,1269.13c16.44,0,29.76,13.33,29.76,29.76s-13.33,29.76-29.76,29.76H89.29
		c-16.44,0-29.76-13.33-29.76-29.76c0-16.44,13.33-29.76,29.76-29.76H505.99z M505.99,1429.86c16.44,0,29.76,13.33,29.76,29.76
		s-13.33,29.76-29.76,29.76H89.29c-16.44,0-29.76-13.33-29.76-29.76s13.33-29.76,29.76-29.76H505.99z"/>
</g>
</svg>
