<svg xmlns="http://www.w3.org/2000/svg" viewBox="0 0 58.37 58.37"><defs><style>.cls-1{opacity:0.5;}.cls-2{fill:#bb7f66;}</style></defs><g id="Layer_2" data-name="Layer 2"><g id="Layer_1-2" data-name="Layer 1"><g class="cls-1"><path class="cls-2" d="M58.32,39.15,50,1.63A2.09,2.09,0,0,0,48,0H10.42a2.09,2.09,0,0,0-2,1.63L.05,39.15a.88.88,0,0,0,0,.23,1.89,1.89,0,0,0,0,.23V56.28a2.09,2.09,0,0,0,2.08,2.09h54.2a2.1,2.1,0,0,0,2.09-2.09V39.61a1.89,1.89,0,0,0,0-.23A1.76,1.76,0,0,0,58.32,39.15Zm-46.23-35H46.28l7.41,33.35H37.52a2.09,2.09,0,0,0-2.08,2.09,6.26,6.26,0,0,1-12.51,0,2.09,2.09,0,0,0-2.08-2.09H4.68Zm42.11,50h-50V41.69H19a10.42,10.42,0,0,0,20.43,0H54.2Z"/></g></g></g></svg>