<svg xmlns="http://www.w3.org/2000/svg" viewBox="0 0 65.5 67.05"><defs><style>.cls-1{fill:none;}.cls-2{fill:#51505d;}</style></defs><g id="Layer_2" data-name="Layer 2"><g id="Layer_1-2" data-name="Layer 1"><polygon class="cls-1" points="56.88 17.97 55.49 17.16 32.2 3.72 28.75 3.77 53.42 18.01 56.88 17.97"/><path class="cls-1" d="M32.35,35.14l7.52-10.69L17.71,11.66h0L12.14,8.44,4.62,19.14Z"/><path class="cls-1" d="M44.37,23.45a1.87,1.87,0,0,1-.3,1.47l-4.79,6.82L56.59,21.68,53,21.73h0a1.87,1.87,0,0,1-.93-.24L27.23,7.18,22.33,10,43.48,22.24A1.89,1.89,0,0,1,44.37,23.45Z"/><polygon class="cls-1" points="34.68 61.96 61.71 46.25 61.78 22.96 34.74 38.67 34.68 61.96"/><polygon class="cls-1" points="31.03 38.67 3.78 22.94 3.72 46.25 30.97 61.98 31.03 38.67"/><path class="cls-2" d="M65.5,19.73v-.08a.31.31,0,0,0,0-.1v-.07a.36.36,0,0,1,0-.11h0s0-.06,0-.08v0a.36.36,0,0,0,0-.11.56.56,0,0,0,0-.12h0l0-.09s0-.07-.06-.11,0,0,0,0l0-.07a.61.61,0,0,0-.07-.1l0-.05L65,18.47s0,0-.05,0l-.09-.08-.06-.06,0,0-.2-.14L33.62.25a1.24,1.24,0,0,0-.2-.1l-.08,0-.12,0-.11,0L33,0l-.17,0h-.18L22,.15a1.85,1.85,0,0,0-.9,3.46L23.52,5l-4.9,2.85-6.1-3.52a1.84,1.84,0,0,0-2.44.54L.42,18.66a.25.25,0,0,0,0,.07l0,.05v0h0a1.76,1.76,0,0,0-.09.2s0,0,0,0l0,.07s0,0,0,0,0,0,0,.06a.25.25,0,0,1,0,.07l0,.15a.11.11,0,0,1,0,0v0c0,.06,0,.11,0,.16v0L0,47.32a1.85,1.85,0,0,0,.93,1.61l31,17.87a1.83,1.83,0,0,0,.93.25h.24l.08,0,.16,0,.09,0,.14,0a.31.31,0,0,0,.1,0,.67.67,0,0,0,.12-.06h0L64.5,48.93a1.88,1.88,0,0,0,.93-1.6l.07-27.6Zm-33.29-16L55.49,17.16l1.39.81-3.45,0L28.75,3.77Zm-5,3.46L52,21.49a1.87,1.87,0,0,0,.93.24h0l3.62-.05L39.28,31.74l4.79-6.82a1.87,1.87,0,0,0,.3-1.47,1.89,1.89,0,0,0-.89-1.21L22.33,10ZM12.14,8.44l5.56,3.21h0L39.87,24.45,32.35,35.14l-27.73-16ZM3.78,22.94,31,38.67,31,62,3.72,46.25ZM61.71,46.25,34.68,62l.07-23.29L61.78,23Z"/></g></g></svg>