<?xml version="1.0" encoding="utf-8"?>
<!-- Generator: Adobe Illustrator 16.0.0, SVG Export Plug-In . SVG Version: 6.00 Build 0)  -->
<!DOCTYPE svg PUBLIC "-//W3C//DTD SVG 1.0//EN" "http://www.w3.org/TR/2001/REC-SVG-20010904/DTD/svg10.dtd">
<svg version="1.0"
	 id="Layer_1" xmlns:svg="http://www.w3.org/2000/svg" xmlns:dc="http://purl.org/dc/elements/1.1/" xmlns:rdf="http://www.w3.org/1999/02/22-rdf-syntax-ns#" xmlns:cc="http://creativecommons.org/ns#" xmlns:inkscape="http://www.inkscape.org/namespaces/inkscape" xmlns:sodipodi="http://sodipodi.sourceforge.net/DTD/sodipodi-0.dtd"
	 xmlns="http://www.w3.org/2000/svg" xmlns:xlink="http://www.w3.org/1999/xlink" x="0px" y="0px" width="595.28px" height="560px"
	 viewBox="0 74.45 595.28 560" style="enable-background:new 0 74.45 595.28 560;" xml:space="preserve">
<g transform="translate(0,-952.36218)">
	<path d="M47.72,1060.79c-9.86,0-17.86,8-17.86,17.86c0,9.86,8,17.86,17.86,17.86h56.92l61.39,289.64
		c2.43,10.9,9.57,19.98,18.6,19.91h297.64c9.43,0.13,18.11-8.42,18.11-17.86s-8.68-17.99-18.11-17.86H199.14l-7.63-35.72h314.57
		c8-0.06,15.55-6.15,17.3-13.95l41.67-178.58c2.32-10.36-6.68-21.69-17.3-21.77H146.31l-9.67-45.39
		c-1.69-7.93-9.38-14.15-17.49-14.14H47.72z M153.75,1156.03h371.49l-33.3,142.87H184.07L153.75,1156.03z M244.16,1417.95
		c-32.67,0-59.53,26.86-59.53,59.53s26.86,59.53,59.53,59.53c32.66,0,59.53-26.86,59.53-59.53S276.82,1417.95,244.16,1417.95z
		 M422.74,1417.95c-32.66,0-59.53,26.86-59.53,59.53s26.86,59.53,59.53,59.53c32.67,0,59.53-26.86,59.53-59.53
		S455.41,1417.95,422.74,1417.95z M244.16,1453.67c13.36,0,23.81,10.45,23.81,23.81s-10.45,23.81-23.81,23.81
		c-13.36,0-23.81-10.45-23.81-23.81C220.35,1464.12,230.8,1453.67,244.16,1453.67z M422.74,1453.67c13.36,0,23.81,10.45,23.81,23.81
		s-10.45,23.81-23.81,23.81c-13.36,0-23.81-10.45-23.81-23.81C398.93,1464.12,409.38,1453.67,422.74,1453.67z"/>
</g>
</svg>
