<?xml version="1.0" encoding="utf-8"?>
<!-- Generator: Adobe Illustrator 16.0.0, SVG Export Plug-In . SVG Version: 6.00 Build 0)  -->
<!DOCTYPE svg PUBLIC "-//W3C//DTD SVG 1.1//EN" "http://www.w3.org/Graphics/SVG/1.1/DTD/svg11.dtd">
<svg version="1.1" id="Layer_1" xmlns="http://www.w3.org/2000/svg" xmlns:xlink="http://www.w3.org/1999/xlink" x="0px" y="0px"
	 width="595.281px" height="578px" viewBox="0 61.445 595.281 578" enable-background="new 0 61.445 595.281 578"
	 xml:space="preserve">
<title>01 love heart romance wedding valentine</title>
<path d="M404.046,104.702c-39.227-0.18-77.131,14.167-106.406,40.275c-63.31-56.574-159.787-53.839-219.789,6.231
	c-62.784,62.784-45.576,173.375,2.604,245.553c48.18,72.178,165.097,160.633,199.977,186.025c10.146,7.488,23.989,7.488,34.135,0
	c34.881-25.672,152.447-114.871,199.977-186.025c47.531-71.154,65.109-182.77,2.605-245.553
	C487.16,121.244,446.441,104.502,404.046,104.702z M499.105,386.53c-45.947,68.829-161.283,156.447-195.326,181.561
	c-3.578,2.697-8.512,2.697-12.091,0c-34.229-25.206-149.564-112.731-195.327-181.653c-43.995-66.039-60.737-166.307-4.93-222.114
	c55.259-55.134,144.719-55.134,199.977,0c3.628,3.606,9.488,3.606,13.115,0c55.258-55.134,144.719-55.134,199.977,0
	C559.843,220.131,543.101,320.492,499.105,386.53z"/>
</svg>
