<?xml version="1.0" encoding="utf-8"?>
<!-- Generator: Adobe Illustrator 25.2.3, SVG Export Plug-In . SVG Version: 6.00 Build 0)  -->
<svg version="1.1" id="Outline" xmlns="http://www.w3.org/2000/svg" xmlns:xlink="http://www.w3.org/1999/xlink" x="0px" y="0px"
	 viewBox="0 0 24 24" style="enable-background:new 0 0 24 24;" xml:space="preserve">
<style type="text/css">
	.st0{fill:#FFFFFF;}
</style>
<path class="st0" d="M7.4,0.9H4.6C2.6,0.9,1,2.7,1,4.6v2.7c0,2,1.7,3.7,3.7,3.7h2.7C9.4,11,11,9.4,11,7.4V4.6
	C11,2.7,9.5,0.9,7.4,0.9z M9.3,7.4c0,1.1-0.9,1.9-1.9,1.9H4.6c-1.1,0-1.9-0.9-1.9-1.9V4.6c0-1.1,0.9-1.9,1.9-1.9h2.7
	c1.1,0,1.9,0.9,1.9,1.9L9.3,7.4L9.3,7.4z"/>
<path class="st0" d="M19.4,0.9h-2.7c-2,0-3.7,1.7-3.7,3.7v2.7c0,2,1.7,3.7,3.7,3.7h2.7c2,0,3.7-1.7,3.7-3.7V4.6
	C23,2.7,21.3,0.9,19.4,0.9z M21.2,7.4c0,1.1-0.9,1.9-1.9,1.9h-2.7c-1.1,0-1.9-0.9-1.9-1.9V4.6c0-1.1,0.9-1.9,1.9-1.9h2.7
	c1.1,0,1.9,0.9,1.9,1.9V7.4z"/>
<path class="st0" d="M7.4,13H4.6c-2,0-3.7,1.7-3.7,3.7v2.7c0,2,1.7,3.7,3.7,3.7h2.7c2,0,3.7-1.7,3.7-3.7v-2.7C11,14.5,9.5,13,7.4,13
	z M9.3,19.4c0,1.1-0.9,1.9-1.9,1.9H4.6c-1.1,0-1.9-0.9-1.9-1.9v-2.7c0-1.1,0.9-1.9,1.9-1.9h2.7c1.1,0,1.9,0.9,1.9,1.9L9.3,19.4
	L9.3,19.4z"/>
<path class="st0" d="M19.4,13h-2.7c-2,0-3.7,1.7-3.7,3.7v2.7c0,2,1.7,3.7,3.7,3.7h2.7c2,0,3.7-1.7,3.7-3.7v-2.7
	C23,14.5,21.3,13,19.4,13z M21.2,19.4c0,1.1-0.9,1.9-1.9,1.9h-2.7c-1.1,0-1.9-0.9-1.9-1.9v-2.7c0-1.1,0.9-1.9,1.9-1.9h2.7
	c1.1,0,1.9,0.9,1.9,1.9V19.4z"/>
</svg>
