<?xml version="1.0" encoding="utf-8"?>
<!-- Generator: Adobe Illustrator 25.2.3, SVG Export Plug-In . SVG Version: 6.00 Build 0)  -->
<svg version="1.1" id="Outline" xmlns="http://www.w3.org/2000/svg" xmlns:xlink="http://www.w3.org/1999/xlink" x="0px" y="0px"
	 viewBox="0 0 24 24" style="enable-background:new 0 0 24 24;" xml:space="preserve">
<style type="text/css">
	.st0{fill:#FFFFFF;}
</style>
<path class="st0" d="M7,22H5c-1.7,0-3-1.3-3-3V5c0-1.7,1.3-3,3-3h2c0.6,0,1-0.4,1-1S7.6,0,7,0H5C2.2,0,0,2.2,0,5v14c0,2.8,2.2,5,5,5
	h2c0.6,0,1-0.4,1-1S7.6,22,7,22z"/>
<path class="st0" d="M18.5,18.7l4.6-4.6c1.2-1.2,1.2-3.1,0-4.2l-4.6-4.6c-0.4-0.4-1-0.4-1.4,0c-0.4,0.4-0.4,1,0,1.4l4.3,4.3H6
	c-0.6,0-1,0.4-1,1s0.4,1,1,1h15.4l-4.3,4.3c-0.4,0.4-0.4,1,0,1.4C17.5,19.1,18.1,19.1,18.5,18.7C18.5,18.7,18.5,18.7,18.5,18.7z"/>
</svg>
