<?xml version="1.0" encoding="utf-8"?>
<!-- Generator: Adobe Illustrator 25.4.1, SVG Export Plug-In . SVG Version: 6.00 Build 0)  -->
<svg version="1.1" id="Layer_1" xmlns="http://www.w3.org/2000/svg" xmlns:xlink="http://www.w3.org/1999/xlink" x="0px" y="0px"
	 viewBox="0 0 29.2 29" style="enable-background:new 0 0 29.2 29;" xml:space="preserve">
<style type="text/css">
	.st0{fill:#FFFFFF;stroke:#FFFFFF;stroke-miterlimit:10;}
</style>
<path class="st0" d="M26.8,26.9h-1.2V10.1c0-0.8-0.6-1.4-1.4-1.4h-2.6c-0.8,0-1.4,0.6-1.4,1.4v16.8h-2.9v-9.2c0-0.8-0.6-1.4-1.4-1.4
	h-2.6c-0.8,0-1.4,0.6-1.4,1.4v9.2H9v-4.8c0-0.8-0.6-1.4-1.4-1.4H5c-0.8,0-1.4,0.6-1.4,1.4v4.8H2.4c-0.3,0-0.5,0.2-0.5,0.5
	c0,0,0,0,0,0c0,0.3,0.2,0.5,0.5,0.5c0,0,0,0,0,0h24.5c0.3,0,0.5-0.2,0.5-0.5c0,0,0,0,0,0C27.4,27.1,27.1,26.9,26.8,26.9
	C26.8,26.9,26.8,26.9,26.8,26.9z M7.9,26.9H4.6v-4.8c0-0.2,0.2-0.4,0.4-0.4h2.6c0.2,0,0.4,0.2,0.4,0.4l0,0
	C7.9,22.2,7.9,26.9,7.9,26.9z M16.3,26.9H13v-9.2c0-0.2,0.2-0.4,0.4-0.4l0,0h2.6c0.2,0,0.4,0.2,0.4,0.4l0,0L16.3,26.9z M24.6,26.9
	h-3.3V10.1c0-0.2,0.2-0.4,0.4-0.4l0,0h2.6c0.2,0,0.4,0.2,0.4,0.4l0,0C24.6,10.1,24.6,26.9,24.6,26.9z"/>
<path class="st0" d="M25.7,1.6c0-0.1,0-0.3-0.1-0.4C25.4,1.1,25.3,1,25.1,1h-3.2c-0.3,0-0.5,0.2-0.5,0.5c0,0,0,0,0,0
	c0,0.3,0.2,0.5,0.5,0.5c0,0,0,0,0,0h2l-5.2,5.2l-2-2c-0.1-0.1-0.2-0.2-0.4-0.2c-0.1,0-0.3,0.1-0.3,0.2l-9.5,9.5
	c-0.2,0.2-0.2,0.5,0,0.7c0,0,0,0,0,0c0.1,0.1,0.2,0.2,0.4,0.2c0.1,0,0.3-0.1,0.4-0.2l9.1-9.1l2,2c0.2,0.2,0.5,0.2,0.8,0l5.5-5.6v1.8
	c0,0.3,0.2,0.5,0.5,0.5l0,0c0.3,0,0.5-0.2,0.5-0.5c0,0,0,0,0,0L25.7,1.6L25.7,1.6z"/>
</svg>
