<?xml version="1.0" encoding="utf-8"?>
<!-- Generator: Adobe Illustrator 25.2.3, SVG Export Plug-In . SVG Version: 6.00 Build 0)  -->
<svg version="1.1" id="Outline" xmlns="http://www.w3.org/2000/svg" xmlns:xlink="http://www.w3.org/1999/xlink" x="0px" y="0px"
	 viewBox="0 0 24 24" style="enable-background:new 0 0 24 24;" xml:space="preserve">
<style type="text/css">
	.st0{fill:#FFFFFF;stroke:#FFFFFF;stroke-miterlimit:10;}
</style>
<g>
	<path class="st0" d="M12,23.5c-0.1,0-0.2,0-0.2-0.1L0.9,17.6c-0.2,0-0.3-0.2-0.3-0.4V6.5c0-0.2,0.1-0.3,0.2-0.4s0.3-0.1,0.5,0
		l10.9,5.4c0.2,0.1,0.3,0.3,0.3,0.4v10.9c0,0.2-0.1,0.3-0.2,0.4C12.2,23.5,12.1,23.5,12,23.5z M1.5,17l10,5.2v-9.9l-10-4.9V17z"/>
	<path class="st0" d="M12,23.5c-0.1,0-0.2,0-0.3-0.1c-0.1-0.1-0.2-0.3-0.2-0.4V12c0-0.2,0.1-0.4,0.3-0.4l10.9-5.4
		c0.2-0.1,0.3-0.1,0.5,0c0.1,0,0.2,0.2,0.2,0.3v10.7c0,0.2-0.1,0.4-0.3,0.4l-10.9,5.7C12.2,23.5,12.1,23.5,12,23.5L12,23.5z
		 M12.5,12.3v9.9l10-5.2V7.4L12.5,12.3z M22.9,17.3L22.9,17.3L22.9,17.3z"/>
	<path class="st0" d="M1.1,7C0.9,7,0.7,6.9,0.7,6.7C0.6,6.5,0.7,6.2,0.9,6l10.9-5.4c0.1-0.1,0.3-0.1,0.4,0L23.1,6
		c0.2,0.1,0.3,0.4,0.2,0.7c-0.1,0.2-0.4,0.3-0.7,0.2L12,1.7L1.3,7C1.3,7,1.2,7,1.1,7L1.1,7z"/>
	<path class="st0" d="M17.7,14.9c-0.3,0-0.5-0.2-0.5-0.5V9.5L6.6,4.1C6.3,4,6.2,3.8,6.4,3.5s0.4-0.3,0.7-0.2L18,8.7
		c0.2,0.1,0.3,0.3,0.3,0.4v5.2C18.2,14.7,18,14.9,17.7,14.9L17.7,14.9z"/>
</g>
</svg>
