<?xml version="1.0" encoding="utf-8"?>
<!-- Generator: Adobe Illustrator 25.2.3, SVG Export Plug-In . SVG Version: 6.00 Build 0)  -->
<svg version="1.1" id="Layer_1" xmlns="http://www.w3.org/2000/svg" xmlns:xlink="http://www.w3.org/1999/xlink" x="0px" y="0px"
	 viewBox="0 0 24 24" style="enable-background:new 0 0 24 24;" xml:space="preserve">
<style type="text/css">
	.st0{fill:#FFFFFF;}
</style>
<path class="st0" d="M7.5,24C3.4,24,0,20.6,0,16.5c0-3.4,2.2-6.3,5.5-7.2c1.3-0.4,2.6-0.4,3.9,0l7.9-7.9c0.8-0.9,2-1.3,3.2-1.3l0,0
	c2,0,3.5,1.6,3.5,3.5c0,1.2-0.5,2.4-1.3,3.2L22,7.4C21.6,7.8,21.1,8,20.6,8H19v1c0,1.1-0.9,2-2,2h-1v1.6c0,0.5-0.2,1-0.6,1.4
	l-0.6,0.6c0.3,1.3,0.3,2.6,0,3.9c-0.8,2.9-3.4,5.1-6.4,5.4C8,24,7.8,24,7.5,24z M7.5,11c-3,0-5.5,2.5-5.5,5.5c0,3,2.5,5.5,5.5,5.5
	c2.5,0,4.6-1.6,5.3-4c0.3-1.1,0.3-2.2-0.1-3.3c-0.1-0.4,0-0.8,0.2-1l1.1-1.1V11c0-1.1,0.9-2,2-2h1V8c0-1.1,0.9-2,2-2h1.6l0.7-0.7
	C21.7,4.9,22,4.2,22,3.5C22,2.7,21.3,2,20.5,2c-0.7,0-1.3,0.3-1.8,0.7l-8.3,8.3c-0.3,0.3-0.7,0.4-1,0.2C8.7,11.1,8.1,11,7.5,11
	L7.5,11z M5,18c0,0.6,0.4,1,1,1s1-0.4,1-1s-0.4-1-1-1S5,17.4,5,18z"/>
</svg>
