<?xml version="1.0" encoding="utf-8"?>
<!-- Generator: Adobe Illustrator 25.2.3, SVG Export Plug-In . SVG Version: 6.00 Build 0)  -->
<svg version="1.1" id="Layer_1" xmlns="http://www.w3.org/2000/svg" xmlns:xlink="http://www.w3.org/1999/xlink" x="0px" y="0px"
	 viewBox="0 0 24 24" style="enable-background:new 0 0 24 24;" xml:space="preserve">
<style type="text/css">
	.st0{fill:#FFFFFF;}
</style>
<path class="st0" d="M17,0c-0.6,0-1,0.4-1,1c0,2.9-2.6,4-5,4H4C1.8,5,0,6.8,0,9v2c0,1.2,0.6,2.4,1.5,3.1l3.6,8C5.6,23.2,6.8,24,8,24
	c1.6,0,3-1.3,3-3c0-0.4-0.1-0.8-0.3-1.2L8.6,15H11c2.4,0,5,1.1,5,4c0,0.6,0.4,1,1,1s1-0.4,1-1V1C18,0.4,17.6,0,17,0z M8.9,20.6
	c0.2,0.5,0,1.1-0.5,1.3C8.3,22,8.2,22,8,22c-0.5,0-0.9-0.3-1.1-0.7L4.1,15h2.3L8.9,20.6z M16,14.6c-1.4-1.1-3.2-1.7-5-1.6H4
	c-1.1,0-2-0.9-2-2V9c0-1.1,0.9-2,2-2h7c1.8,0.1,3.6-0.5,5-1.6V14.6z M23.9,15.5c-0.2,0.5-0.8,0.7-1.3,0.4c0,0,0,0,0,0l-2-1
	c-0.5-0.2-0.7-0.8-0.4-1.3c0.2-0.5,0.8-0.7,1.3-0.4l2,1C23.9,14.4,24.1,15,23.9,15.5L23.9,15.5z M20.1,6.5c-0.2-0.5,0-1.1,0.4-1.3
	c0,0,0,0,0,0l2-1c0.5-0.2,1.1,0,1.3,0.4c0.2,0.5,0,1.1-0.4,1.3l0,0l-2,1C21,7.1,20.4,6.9,20.1,6.5C20.1,6.5,20.1,6.5,20.1,6.5z
	 M20,10c0-0.6,0.4-1,1-1h2c0.6,0,1,0.4,1,1s-0.4,1-1,1h-2C20.4,11,20,10.6,20,10z"/>
</svg>
