<?xml version="1.0" encoding="utf-8"?>
<!-- Generator: Adobe Illustrator 25.2.3, SVG Export Plug-In . SVG Version: 6.00 Build 0)  -->
<svg version="1.1" id="Outline" xmlns="http://www.w3.org/2000/svg" xmlns:xlink="http://www.w3.org/1999/xlink" x="0px" y="0px"
	 viewBox="0 0 24 24" style="enable-background:new 0 0 24 24;" xml:space="preserve">
<style type="text/css">
	.st0{fill:#FFFFFF;stroke:#FFFFFF;stroke-miterlimit:10;}
</style>
<path class="st0" d="M21.9,5.7c-0.8-0.8-2-1-3-0.5V3.3c0-1.4-1.1-2.6-2.6-2.6H3.6C2.1,0.7,1,1.9,1,3.3v17.4c0,1.4,1.1,2.6,2.6,2.6
	h12.8c1.4,0,2.6-1.1,2.6-2.6v-7.9l3.2-3.2c1-1,1-2.7,0-3.7L21.9,5.7z M10.5,15.4l1.9,1.9l-2.6,0.7L10.5,15.4z M13.5,16.9L11,14.4
	l7-6.9l2.5,2.4L13.5,16.9z M17.9,20.7c0,0.9-0.7,1.5-1.5,1.5H3.6c-0.9,0-1.5-0.7-1.5-1.5V3.4c0-0.9,0.7-1.5,1.5-1.5h12.8
	c0.9,0,1.5,0.7,1.5,1.5v2.8l-8,8c-0.1,0.1-0.1,0.2-0.1,0.2l-1.1,4.3c0,0.2,0,0.4,0.1,0.5c0.1,0.1,0.3,0.2,0.5,0.1l4.3-1.1
	c0.1,0,0.2-0.1,0.2-0.1l4.1-4.1L17.9,20.7L17.9,20.7z M21.5,8.8l-0.3,0.3l-2.4-2.4l0.3-0.3c0.6-0.6,1.6-0.6,2.2,0l0.2,0.2
	C22,7.3,22,8.2,21.5,8.8z"/>
</svg>
