<?xml version="1.0" encoding="utf-8"?>
<!-- Generator: Adobe Illustrator 16.0.0, SVG Export Plug-In . SVG Version: 6.00 Build 0)  -->
<!DOCTYPE svg PUBLIC "-//W3C//DTD SVG 1.0//EN" "http://www.w3.org/TR/2001/REC-SVG-20010904/DTD/svg10.dtd">
<svg version="1.0" id="Layer_1" xmlns="http://www.w3.org/2000/svg" xmlns:xlink="http://www.w3.org/1999/xlink" x="0px" y="0px"
	 width="69px" height="82px" viewBox="0 0 69 82" style="enable-background:new 0 0 69 82;" xml:space="preserve">
<g>
	<path style="opacity:0.7;fill:#ACC1C6;" d="M55.48,47.53C54.3,26.78,36.34,16.33,36.34,16.33S18.38,26.78,17.21,47.53
		c-0.07,0.69-0.11,1.38-0.11,2.09c0,10.84,8.62,19.63,19.25,19.63s19.25-8.79,19.25-19.63C55.59,48.92,55.55,48.22,55.48,47.53z"/>
	<path style="fill:none;stroke:#010101;stroke-linecap:round;stroke-linejoin:round;" d="M51.79,43.95
		c-1.17-20.75-19.13-31.2-19.13-31.2S14.7,23.21,13.53,43.95c-0.07,0.69-0.11,1.39-0.11,2.1c0,10.84,8.62,19.63,19.25,19.63
		S51.9,56.89,51.9,46.05C51.9,45.34,51.86,44.64,51.79,43.95z"/>
</g>
</svg>
