<?xml version="1.0" encoding="utf-8"?>
<!-- Generator: Adobe Illustrator 25.4.1, SVG Export Plug-In . SVG Version: 6.00 Build 0)  -->
<svg version="1.1" id="Layer_1" xmlns="http://www.w3.org/2000/svg" xmlns:xlink="http://www.w3.org/1999/xlink" x="0px" y="0px"
	 viewBox="0 0 242 321" style="enable-background:new 0 0 242 321;" xml:space="preserve">
<style type="text/css">
	.st0{fill:#FFA5A5;}
	.st1{fill:#2D292A;}
	.st2{fill:#BB7F66;}
	.st3{fill:#895846;}
	.st4{fill:#51505D;}
	.st5{fill:#0C090C;}
	.st6{fill:#3B261C;}
	.st7{fill:#482A28;}
	.st8{fill:#FD717A;}
	.st9{fill:#CAD0BA;}
</style>
<g>
	<g>
		<g>
			<g>
				<g>
					<polygon class="st0" points="36.8,281.8 30.1,293 15.1,286.4 21.8,272 					"/>
				</g>
			</g>
		</g>
	</g>
	<g>
		<g>
			<g>
				<path class="st1" d="M15.1,286.4l15,6.6c0.8,1,7,6.8,13.7,13.3c11.4,4.7,24,10.1,23,10.8c-6.7,4.5-21.1,2.6-32.3,1.3
					c-0.6-0.1-1.1-0.2-1.6-0.5c-14.6-7.5-27.2-18.1-27.2-18.1L15.1,286.4z"/>
			</g>
		</g>
	</g>
	<g>
		<g>
			<g>
				<g>
					<path class="st0" d="M43.9,306.2L43.9,306.2c-23.5-3.7-28.7-19.7-28.7-19.7l15,6.6C31,294,37.2,299.8,43.9,306.2z"/>
				</g>
			</g>
		</g>
	</g>
	<g>
		<g>
			<g>
				<polygon class="st2" points="115.3,165 43.9,288.5 12.7,273.3 58.6,105.6 				"/>
			</g>
		</g>
	</g>
	<g>
		<g>
			<g>
				<polygon class="st3" points="94.8,200.4 80.2,225.7 80.2,225.7 61.2,150 				"/>
			</g>
		</g>
	</g>
	<g>
		<g>
			<g>
				<path class="st2" d="M158.7,288.7l35.1-8.5l-78.5-161.4l-56.7-13.2C38.9,161.2,158.7,288.7,158.7,288.7z"/>
			</g>
		</g>
	</g>
	<g>
		<path class="st1" d="M159.9,31c7.3-15.1-31.5-8.1-35.6-8c-4.1,0.1-3.8,7.4-3.8,7.4c19.9,21.8,39.6,19.2,39.6,19.2
			C156,47.2,154.2,42.9,159.9,31z M126.6,36.3l-1.1-0.9l4.7-2.3L126.6,36.3z"/>
		<g>
			<g>
				<g>
					<g>
						<path class="st1" d="M157.8,19c-0.7-3.2-3.5-5.6-6.5-7c-0.7-0.3-1.5-0.6-2.2-0.8c-0.9-0.2-1.8-0.2-2.8-0.3
							c-1.4-0.1-2.8-0.3-4.1,0c-1.4,0.3-2.7,1.2-2.9,2.6c0,0.3,0,0.6-0.2,0.8c-0.1,0.2-0.4,0.4-0.6,0.6c-2.8,2-3.2,5.7-4.3,9
							c-1.2,3.5-0.1,5.2,1.3,7.3c0.2,0.3,0.1,0.7,0.5,0.8c0.3,0,0.6-0.1,0.8-0.2c1.2-0.5,2.4-1,3.4-1.8c0.7-0.6,1.3-1.4,1.9-2.1
							c1.2-1.3,2.8-2.3,4.5-2.9c1-0.4,2.1-0.6,3.2-0.4c1.1,0.2,2.1,0.9,3.1,1.4c0.6,0.3,1,1.5,1.7,1.2c0.7-0.3,1.5-1.8,1.9-2.4
							c0.5-0.8,0.9-1.6,1.1-2.6C158,21.1,158.1,20.1,157.8,19z"/>
					</g>
				</g>
			</g>
		</g>
		<g>
			<g>
				<g>
					<g>
						<polygon class="st4" points="152.9,132.5 173.6,115.3 144.7,78.8 124.3,95.1 						"/>
					</g>
				</g>
			</g>
		</g>
		<g>
			<g>
				<g>
					<g>
						<path class="st2" d="M116.2,36.8c0,0-11.8-3.3-15.8,0c-3.9,3.3-33.2,55-41.8,68.8c-1.7,2.7,51.9,23.1,58.5,16.8
							c11.4-11,13.7-18.9,13.7-18.9s34.3-44.4,22-50.8C149,50.9,116.2,36.8,116.2,36.8z"/>
					</g>
				</g>
			</g>
		</g>
		<g>
			<g>
				<g>
					<path class="st5" d="M124.3,122.7l0.1-0.5c-39.7-3.9-60.2-12.7-65.6-16.7l-0.3,0.4C58.6,106,74.5,117.8,124.3,122.7z"/>
				</g>
			</g>
		</g>
		<g>
			<g>
				<g>
					<g>
						<path class="st4" d="M100.4,36.8c3.9-3.3,15.8,0,15.8,0s32.8,14.1,36.6,16c12.3,6.3,0.5,29.7-4.8,41.2l-6-15.6l-33.5-14.7
							l-25.6,11C90.2,57.9,97.9,39,100.4,36.8z"/>
					</g>
				</g>
			</g>
		</g>
		<g>
			<g>
				<g>
					<g>
						<g>
							<g>
								<g>
									<path class="st0" d="M142.3,55.7c4.6-9.9,10.4-30.2,10.4-30.2s-5.4-0.5-9.4,0.3c0.2-0.7,0.4-1.6,0.5-2.9
										c0,0-0.1-2.7-1.3-2.8c-1.2-0.1-3.4,1.6-2,3.9c0.8,1.4,1.1,0.5,1.1,0.5s0.2,0.5-0.9,2.4c-0.2,0.4,0.2,7.7-12.6,15
										c0,0-2.6,15,5.5,17.4C139.8,61.1,142.3,55.7,142.3,55.7z"/>
								</g>
							</g>
						</g>
					</g>
				</g>
			</g>
			<g>
				<g>
					<g>
						<g>
							<g>
								<g>
									<path class="st1" d="M145.9,46.7c0.7-1.7,0.9-2.3,1.8-4.7c-0.1-0.2,0,0,0,0s-8.3-5.3-8.8-11.1
										C138.9,31,139.8,44.4,145.9,46.7z"/>
								</g>
							</g>
						</g>
					</g>
				</g>
			</g>
			<g>
				<g>
					<g>
						<g>
							<g>
								<g>
									<path class="st0" d="M155.8,24c0,0-1.8,4.3-1.4,6c0.3,1.8-3.1,10.6-5.2,11.9c-1.1,0.7-4.9-0.5-7.4-4.8
										c-2.5-4.3-0.5-11.8-0.5-11.8S142.4,17.3,155.8,24z"/>
								</g>
							</g>
						</g>
					</g>
				</g>
			</g>
			<g>
				<g>
					<g>
						<g>
							<path class="st5" d="M148.3,36.6c0.1,0,0.2,0.1,0.3,0.1c0.9,0.2,1.6-0.2,1.6-0.2c0.1-0.1,0.1-0.2,0.1-0.3
								c-0.1-0.1-0.2-0.1-0.3-0.1c0,0-0.6,0.3-1.3,0.2c-0.6-0.2-1.2-0.7-1.6-1.5c-0.1-0.1-0.2-0.1-0.3-0.1c-0.1,0.1-0.1,0.2-0.1,0.3
								C147.2,35.8,147.7,36.3,148.3,36.6z"/>
						</g>
					</g>
				</g>
			</g>
		</g>
		<g>
			<g>
				<g>
					<g>
						<g>
							<path class="st6" d="M153.3,32.2c-0.2,0.5-0.6,0.7-0.8,0.6c-0.2-0.1-0.2-0.6,0-1c0.2-0.5,0.6-0.7,0.8-0.6
								C153.6,31.3,153.6,31.8,153.3,32.2z"/>
						</g>
					</g>
				</g>
			</g>
		</g>
		<g>
			<g>
				<g>
					<g>
						<g>
							<path class="st6" d="M150.1,30.7c-0.2,0.5-0.6,0.7-0.8,0.6c-0.2-0.1-0.2-0.6,0-1c0.2-0.5,0.6-0.7,0.8-0.6
								C150.4,29.8,150.3,30.2,150.1,30.7z"/>
						</g>
					</g>
				</g>
			</g>
		</g>
		<g>
			<g>
				<g>
					<g>
						<g>
							<path class="st7" d="M151.4,27.9c0,0-0.4-1.7-1.7-1.1c-1.3,0.6-1,1.1-0.9,1.1c0.1,0.1,2.1-0.2,2,0.7
								C150.8,28.6,151.3,28.9,151.4,27.9z"/>
						</g>
					</g>
				</g>
			</g>
		</g>
		<g>
			<g>
				<g>
					<g>
						<g>
							<path class="st7" d="M155.1,29.6c-0.1-1.2-1.7-0.7-1.7-0.7c-0.9,0.6-0.2,0.9-0.2,0.9C154,29.3,155.4,31.5,155.1,29.6z"/>
						</g>
					</g>
				</g>
			</g>
		</g>
		<g>
			<g>
				<g>
					<g>
						<path class="st1" d="M152.6,24.8c-0.9-0.5-1.9-1.2-3-1.2c-1.3,0-2.9,0.7-4.1,0.3c-2.6-0.8-1.8-2.4-1.3-3.4
							c0.5-1,1.5-1.6,2.5-1.9c1.6-0.4,3.3-0.1,4.8,0.7c1.5,0.8,2.7,1.9,3.7,3.2c0.4,0.5,0.8,1,0.9,1.6c0.1,0.5,0.1,1.4-0.5,1.5
							c-0.6,0.1-1.3,0-1.9-0.2C153.3,25.2,152.9,25,152.6,24.8z"/>
					</g>
				</g>
			</g>
		</g>
		<g>
			<g>
				<g>
					<g>
						<path class="st2" d="M119.6,38.3c0.8,0.3,1.7,0.7,2.7,1.2l2.1,0.9l-5.6,12.8c-1.9,4.4,0.1,9.4,4.4,11.4l8.1,3.6
							c4.4,1.9,9.4-0.1,11.4-4.4l5.6-12.9c2.1,1,3.8,1.7,4.4,2c0.1,0.1,0.2,0.1,0.3,0.2l-9.8,32.4l-34.8-21.6L119.6,38.3z"/>
					</g>
				</g>
			</g>
		</g>
		<g>
			<g>
				<g>
					<g>
						<path class="st5" d="M132.7,59.3c0.2,0.1,0.4,0.2,0.6,0.2c2.2,0.8,4.1,0.6,5.9-0.4c4.4-2.5,5.7-9.6,5.8-9.9l-0.5-0.1
							c0,0.1-1.4,7.1-5.5,9.5c-1.6,0.9-3.4,1-5.5,0.3c-0.2-0.1-0.4-0.1-0.6-0.2c-7.8-3.4-4.8-16.7-4.8-16.9l-0.5-0.1
							C127.7,41.9,124.6,55.7,132.7,59.3z"/>
					</g>
				</g>
			</g>
		</g>
		<g>
			<g>
				<g>
					<g>
						<path class="st4" d="M118.4,138.7l19.9-21.8l-29.8-32.4l2.8-48.9l-7.6-1.1C94.1,33.7,86.9,41,85,50.4
							c-7.1,35-3.9,49.3-3.9,49.3L118.4,138.7z"/>
					</g>
				</g>
			</g>
		</g>
		<g>
			<g>
				<g>
					<g>
						<path class="st1" d="M153.7,135.6c4.2-4.8,11.5-5.4,16.3-1.2c0.3,0.2,0.5,0.5,0.8,0.8l0,0l17.1,14.7l-13,18.2l42.4,10.3
							l-0.7,3.8l-0.1,0c-0.6,2.6-3.1,4.3-5.7,3.8c-2.3-0.4-3.8-2.4-3.9-4.6l-38.2-3.9l-3.9,5.5L141.5,163l12.5-12
							C150.1,146.7,149.9,140.1,153.7,135.6z M156.5,148.6l11.9-11.1c-0.2-0.2-0.3-0.4-0.5-0.5c-3.4-2.9-8.6-2.6-11.5,0.9
							C153.6,141,153.7,145.6,156.5,148.6z"/>
					</g>
				</g>
			</g>
			<g>
				<g>
					<g>
						<polygon class="st8" points="183.9,155.9 165.5,140.1 167,138.8 185,154.3 						"/>
					</g>
				</g>
			</g>
		</g>
		<g>
			<g>
				<g>
					<g>
						<g>
							<path class="st0" d="M158.6,139.7c0,0,2.4,7.6,0.1,8.9c-4,2.1-20.4-2.2-20-2.8c0,0,4.9-10,5.5-10.5c0.5-0.5,3-2.6,6.3-1.6
								C153.7,134.6,158.6,139.7,158.6,139.7z"/>
						</g>
					</g>
				</g>
			</g>
			<g>
				<g>
					<g>
						<g>
							<polygon class="st0" points="138.7,145.7 120.8,135.8 133,122.4 144.2,135.2 							"/>
						</g>
					</g>
				</g>
			</g>
			<g>
				<g>
					<g>
						<g>
							<path class="st0" d="M153.1,142.6c0,0,15.5,1.6,16,0c1-3.1-14.5-4.9-15.9-3.9C151.8,139.7,153.1,142.6,153.1,142.6z"/>
						</g>
					</g>
				</g>
			</g>
			<g>
				<g>
					<g>
						<g>
							<path class="st0" d="M154,149.3c0,0,15.4-2.5,15.5-4.1c0.1-3.2-15.3-1-16.4,0.3S154,149.3,154,149.3z"/>
						</g>
					</g>
				</g>
			</g>
			<g>
				<g>
					<g>
						<g>
							<path class="st0" d="M155.2,129.6c0,0-11.2,3.1-11,5.6c0.1,2.5,9.8-0.2,9.8-0.2S158,130.2,155.2,129.6z"/>
						</g>
					</g>
				</g>
			</g>
		</g>
		<g>
			<g>
				<g>
					<g>
						<g>
							<path class="st0" d="M188,141.1l-16.8-24l-11.1,9.3l21.6,21.2l5.4-3.2C188.3,143.6,188.7,142.2,188,141.1z"/>
						</g>
					</g>
				</g>
			</g>
			<g>
				<g>
					<g>
						<g>
							<g>
								<path class="st0" d="M180.8,148.1c0,0,9.2,18.3,8.5,9.8c-0.2-2.1-1-15.9-1-15.9s-6.8,1-7.4,1.1c-0.6,0.1-6.1,4.8-6.8,7.4
									C173.4,153.2,180.8,148.1,180.8,148.1z"/>
							</g>
						</g>
					</g>
				</g>
				<g>
					<g>
						<g>
							<g>
								<path class="st0" d="M188.3,152.5c0,0-4.7,11.5-5.9,11.3c-2.5-0.5,1.9-12,3.1-12.6C186.7,150.6,188.3,152.5,188.3,152.5z"/>
							</g>
						</g>
					</g>
				</g>
				<g>
					<g>
						<g>
							<g>
								<path class="st0" d="M189.3,157.9c0,0-0.5,10.4-1.8,10.5c-2.5,0.4-2.1-12-1.1-13C187.3,154.5,189.3,157.9,189.3,157.9z"/>
							</g>
						</g>
					</g>
				</g>
			</g>
		</g>
		<g>
			<g>
				<g>
					<path class="st2" d="M133.7,15.7c5-3,5.2-5.5,5.2-5.5c0,0,0-0.1,0-0.1c1.8-5.5,8.1-8.4,14.1-6.4c4.8,1.5,8.2,5.5,8.1,9.9
						c-2.6,8.6,6.9,13,0.1,15.1c0,0-9.8-8.2-32.9-5.9C117.7,24,127,19.8,133.7,15.7z"/>
				</g>
			</g>
		</g>
		<g>
			<g>
				<g>
					<path class="st9" d="M136.5,13.7c1-0.9,1.6-1.7,1.9-2.2l22.5,4.9c0.1,0.9,0.2,1.9,0.5,2.8L136.5,13.7z"/>
				</g>
			</g>
		</g>
	</g>
	<g>
		<g>
			<g>
				<polygon class="st1" points="32.8,288.5 19.6,276.7 35.3,284.3 				"/>
			</g>
		</g>
	</g>
	<g>
		<g>
			<g>
				
					<rect x="137.4" y="270.9" transform="matrix(0.9475 -0.3197 0.3197 0.9475 -78.1867 66.0675)" class="st5" width="49.5" height="0.5"/>
			</g>
		</g>
	</g>
	<g>
		<g>
			<g>
				<polygon class="st5" points="50,277.9 50.3,277.4 12.8,255.7 12.6,256.2 				"/>
			</g>
		</g>
	</g>
	<g>
		<g>
			<g>
				<polygon class="st5" points="112,131.8 132,110.1 131.7,109.8 111.6,131.4 				"/>
			</g>
		</g>
	</g>
	<g>
		<g>
			<g>
				<polygon class="st5" points="148.3,126.4 168.5,108.9 168.2,108.5 147.9,126 				"/>
			</g>
		</g>
	</g>
	<g>
		<g>
			<g>
				<g>
					<g>
						<g>
							<path class="st1" d="M190.7,294.8c3.1,0.2,46.5-2.9,45.5-1.1c-9.8,17.5-56.6,23.8-56.6,23.8l-4-16.2L190.7,294.8z"/>
						</g>
					</g>
				</g>
			</g>
			<g>
				<g>
					<g>
						<g>
							<polygon class="st0" points="183.9,282.6 190.7,294.8 175.6,301.3 164.7,287.3 							"/>
						</g>
					</g>
				</g>
			</g>
			<g>
				<g>
					<g>
						<g>
							<path class="st0" d="M210,293.8L210,293.8c-18.6,14.8-34.5,7.5-34.5,7.5l15.1-6.5C192,294.8,200.7,294.3,210,293.8z"/>
						</g>
					</g>
				</g>
			</g>
		</g>
		<g>
			<g>
				<g>
					<polygon class="st1" points="186.4,287.1 164.7,287.3 183.9,282.6 					"/>
				</g>
			</g>
		</g>
	</g>
	<g>
		<g>
			<g>
				<polygon class="st5" points="226.2,190.9 226.6,190.6 220.2,183.1 219.8,183.5 				"/>
			</g>
		</g>
	</g>
	<g>
		<g>
			<g>
				
					<rect x="220" y="187.2" transform="matrix(0.9114 -0.4115 0.4115 0.9114 -60.4775 107.8508)" class="st5" width="0.5" height="14.4"/>
			</g>
		</g>
	</g>
	<g>
		<g>
			<g>
				<rect x="212" y="188.6" class="st5" width="0.5" height="9.2"/>
			</g>
		</g>
	</g>
</g>
</svg>
