<?xml version="1.0" encoding="utf-8"?>
<!-- Generator: Adobe Illustrator 16.0.0, SVG Export Plug-In . SVG Version: 6.00 Build 0)  -->
<!DOCTYPE svg PUBLIC "-//W3C//DTD SVG 1.1//EN" "http://www.w3.org/Graphics/SVG/1.1/DTD/svg11.dtd">
<svg version="1.1" id="Layer_1" xmlns="http://www.w3.org/2000/svg" xmlns:xlink="http://www.w3.org/1999/xlink" x="0px" y="0px"
	 width="242px" height="321px" viewBox="0 0 242 321" enable-background="new 0 0 242 321" xml:space="preserve">
<path fill="none" stroke="#000000" stroke-width="2" stroke-miterlimit="10" d="M78.808,30.55c0-15.47-11.202-28.272-25.071-28.272
	S28.664,15.08,28.664,30.55c0,15.469,11.203,28.272,25.072,28.272S78.808,46.019,78.808,30.55z"/>
<path fill="none" stroke="#000000" stroke-width="2" stroke-miterlimit="10" d="M4.66,199.116l9.068,0.532v89.083
	c0,6.401,5.867,12.269,12.803,12.269h7.468c6.935,0,12.269-5.334,12.269-12.269v-86.414l8.535,0.531l6.4-76.28l1.066,2.133
	c1.068,2.669,3.201,4.268,5.336,5.87l0,0l0,0l0,0l43.207,25.069c5.868,3.201,13.336,1.067,17.07-4.8
	c1.601-2.667,2.134-5.867,1.601-8.534l1.601-0.534l4.268,7.467l-44.809,25.605l22.938,39.474l25.071-14.402l46.942,12.803
	l-2.668,1.6l2.668,4.802l14.936-8.536l-2.667-4.8l-2.667,1.599l-32.006-21.337l10.135-5.867l-22.938-39.474l-7.468,4.269
	l-8.534-14.936l-9.068,5.333c-1.068-0.534-1.602-1.067-2.135-1.602l-40.008-23.471L61.737,77.492
	c-0.532-1.067-1.601-2.133-2.134-3.201c-1.066-1.602-1.6-2.133-2.667-3.201c-4.267-4.268-9.603-6.935-16.003-7.469l0,0
	c-13.869-1.065-26.138,9.068-27.205,22.938L4.66,199.116z"/>
<path d="M204.697,223.654L204.697,223.654l-0.533,1.6v0.533v0.534v0.533v0.532l0,0c0.533,0.533,1.6,0,1.066-0.532l0,0v-0.533v-0.534
	v-0.533v-0.534v-0.534v-0.531v-0.534h-0.533v-0.533v-0.534v-0.533v-0.534l-0.533-0.534v-0.531v-0.534l0,0
	c-0.533-0.533-1.067,0.534-0.533,1.065l0,0l0.533,0.534l0,0v0.534v0.533v0.534v0.533L204.697,223.654L204.697,223.654
	L204.697,223.654z"/>
<path d="M211.632,230.587v1.602v0.534v0.531v0.534v0.533v0.534v0.534v0.533v0.532v0.533l0,0c0.533,0.534,1.601,0,1.067-0.533l0,0
	v-0.532v-0.533v-0.534v-0.534v-0.533v-0.534v-0.531v-0.534v-0.533v-0.534l-0.534-0.534v-0.533v-0.532v-0.533v-0.534l0,0
	c-0.533-0.534-1.6,0-1.066,0.534l0,0v0.533v0.532L211.632,230.587L211.632,230.587L211.632,230.587z"/>
<path d="M218.033,238.057L218.033,238.057v0.533v0.534v0.531v0.534v0.533v0.534v0.534v0.533v0.532v0.533v0.534v0.534v0.533v0.534
	v0.531l0,0c0.533,0.534,1.601,0,1.066-0.531l0,0v-0.534v-0.533v-0.534v-0.534v-0.533v-0.532v-0.533v-0.534v-0.534v-0.533v-0.534
	v-0.531v-0.534l-0.533-0.533l0,0l0,0C218.033,236.988,216.967,238.057,218.033,238.057z"/>
<path d="M225.501,248.724l0.534-1.6v-0.533v-0.534l0,0c-0.534-0.533-1.601,0-1.067,0.534l0,0v0.533v0.534v0.534v0.531v0.534v0.533
	v0.534v0.534v0.533v0.532v0.533v0.534v0.533v0.534v0.534l0,0c0.533,0.533,1.601,0,1.067-0.534l0,0v-0.534v-0.533v-0.534v-0.533
	v-0.532v-0.533v-0.534v-0.534v-0.533L225.501,248.724L225.501,248.724L225.501,248.724z"/>
<path d="M231.369,263.128c0,1.065,1.066,0.534,1.066,0l0,0v-0.534v-0.533v-0.534v-0.534v-0.533v-0.532v-0.533v-0.534v-0.533v-0.534
	v-0.534v-0.531v-0.534v-0.533v-0.534l0,0c-0.533-0.534-1.6,0-1.066,0.534l0,0v0.533v0.534v0.531v0.534v0.534v0.533v0.534v0.533
	v0.532v0.533v0.534v0.534v0.533V263.128L231.369,263.128L231.369,263.128z"/>
<path d="M234.57,271.662l-0.534,1.6v0.533v0.534v0.534v0.533v0.534l0,0c0,0.531,1.067,0,1.067-0.534l0,0v-0.533v-0.534v-0.534
	v-0.533v-0.532v-0.533v-0.534v-0.533v-0.534v-0.534v-0.531v-0.534v-0.533v-0.534v-0.534c0-0.533-1.601-0.533-1.067,0.534v0.534
	v0.533v0.534v0.531v0.534v0.534L234.57,271.662L234.57,271.662L234.57,271.662z"/>
<path d="M236.703,279.129v0.534v0.533v0.534v0.534v0.533v0.534v0.531v0.534v0.534v0.533v0.534v0.533v0.532v0.533v0.534l0,0
	c0.533,0.534,1.066,0,1.066-0.534l0,0v-0.533v-0.532v-0.533v-0.534v-0.533v-0.534v-0.534v-0.531v-0.534v-0.533v-0.534v-0.534v-0.533
	v-0.534l0,0C237.77,278.598,236.703,279.129,236.703,279.129z"/>
<path d="M191.895,226.321L191.895,226.321v0.531l0.533,0.534v0.533v0.534l0,0v0.534l0.534,0.533v0.534v0.531v0.534l0.534,0.534
	v0.533v0.534v0.533l0.533,0.532l0,0c0.533,0.533,1.6,0,1.066-0.532l0,0v-0.533v-0.534l-0.533-0.533v-0.534v-0.534v-0.531
	l-0.533-0.534v-0.533v-0.534v-0.534v-0.533v-0.534l0,0l-0.533-0.531l0,0l0,0l0,0C192.962,225.787,191.895,226.321,191.895,226.321z"
	/>
<path d="M200.963,234.321v0.534v0.534v0.533v0.532v0.533v0.534v0.534v0.533v0.534v0.531v0.534v0.533v0.534v0.534v0.533l0,0
	c0.533,0.534,1.601,0,1.067-0.533l0,0v-0.534v-0.534v-0.533v-0.534v-0.531v-0.534v-0.533v-0.534v-0.534v-0.533v-0.532v-0.533v-0.534
	l-0.534-0.534l0,0l0,0C200.963,233.788,199.896,234.855,200.963,234.321z"/>
<path d="M207.898,243.39L207.898,243.39v0.534v0.534v0.533v0.534v0.531v0.534v0.533v0.534v0.534v0.533v0.532v0.533v0.534v0.534
	v0.533l0,0c0.533,0.534,1.6,0,1.066-0.533l0,0v-0.534v-0.534v-0.533v-0.532v-0.533v-0.534v-0.534v-0.533v-0.534v-0.531v-0.534
	v-0.533v-0.534l-0.533-0.534l0,0l0,0C207.898,242.856,206.832,243.39,207.898,243.39z"/>
<path d="M214.299,252.992L214.299,252.992v0.533v0.534v0.534v0.531v0.534v0.533v0.534v0.534v0.533v0.532v0.533v0.534v0.533v0.534
	v0.534l0,0c0.533,0.531,1.601,0,1.067-0.534l0,0v-0.534v-0.533v-0.534v-0.533v-0.532v-0.533v-0.534v-0.534v-0.533v-0.534v-0.531
	v-0.534v-0.534l-0.534-0.533l0,0l0,0C214.299,252.458,213.232,252.992,214.299,252.992z"/>
<path d="M219.634,264.193L219.634,264.193v0.534v0.533v0.534v0.533v0.534v0.531v0.534v0.534v0.533v0.534v0.534v0.531v0.534v0.533
	v0.534l0,0c0.533,0.533,1.067,0,1.067-0.534l0,0v-0.533v-0.534v-0.531v-0.534v-0.534v-0.533v-0.534v-0.534v-0.531v-0.534v-0.533
	v-0.534v-0.533l-0.534-1.065l0,0l0,0C219.634,262.594,218.566,263.128,219.634,264.193z"/>
<path d="M223.367,274.329v0.534v0.533v0.534v0.531v0.534v0.534v0.533v0.534v0.533v0.532v0.533v0.534v0.534v0.533v0.534l0,0
	c0,0.534,1.067,0,1.067-0.534l0,0v-0.533v-0.534v-0.534v-0.533v-0.532v-0.533v-0.534v-0.533v-0.534v-0.534v-0.531v-0.534v-0.533
	v-0.534l0,0C224.435,273.262,222.834,273.795,223.367,274.329z"/>
<path d="M227.102,284.999v0.531v0.534v0.533v0.534v0.534v0.533v0.532v0.533v0.534v0.534v0.533v0.534v0.533v0.532v0.533l0,0
	c0,0.534,1.066,0,1.066-0.533l0,0v-0.532V291.4v-0.534v-0.533v-0.534v-0.534v-0.533v-0.532v-0.533v-0.534v-0.534v-0.533v-0.534
	v-0.531l0,0C227.635,284.465,226.568,284.465,227.102,284.999z"/>
<path d="M197.763,223.654L197.763,223.654L197.763,223.654l0.534,0.531v0.534v0.534v0.533l0.533,0.534l0,0v0.533v0.532v0.533v0.534
	v0.534v0.533v0.534v0.531l0,0c0.533,0.534,1.6,0,1.066-0.531l0,0v-0.534v-0.533v-0.534v-0.534v-0.533v-0.532v-0.533l-0.533-0.534
	v-0.533v-0.534l0,0l-0.533-0.534v-0.531l-0.533-0.534l0,0l0,0l0,0C197.763,222.587,197.229,223.654,197.763,223.654z"/>
<path d="M206.297,231.655L206.297,231.655v0.533v0.534v0.531v0.534v0.533v0.534v0.534v0.533v0.532v0.533v0.534v0.534v0.533v0.534
	l0.535,0.533l0,0c0.533,0.532,1.6,0,1.066-0.533l0,0v-0.534v-0.533v-0.534v-0.534v-0.533v-0.532v-0.533l-0.533-0.534v-0.534v-0.533
	l-0.533-0.534v-0.531v-0.534L206.297,231.655L206.297,231.655L206.297,231.655C205.764,231.121,204.697,231.655,206.297,231.655z"/>
<path d="M212.699,240.723L212.699,240.723v0.534v0.534v0.533v0.532v0.533v0.534v0.534v0.533v0.534v0.531v0.534v0.533v0.534v0.534
	v0.533l0,0c0.533,0.532,1.6,0,1.066-0.533l0,0v-0.534v-0.534v-0.533v-0.534v-0.531v-0.534v-0.533v-0.534v-0.534v-0.533v-0.532
	v-0.533v-0.534l-0.533-0.534l0,0l0,0l0,0C212.699,240.189,212.166,240.723,212.699,240.723z"/>
<path d="M219.1,250.859L219.1,250.859v0.533v0.532v0.533v0.534v0.533v0.534v0.534v0.531v0.534v0.533v0.534v0.534v0.533v0.532v0.533
	l0,0c0.534,0.534,1.602,0,1.067-0.533l0,0v-0.532v-0.533v-0.534v-0.534v-0.533v-0.534v-0.531v-0.534v-0.534v-0.533v-0.534v-0.533
	v-0.532l-0.533-1.067l0,0l0,0C219.634,249.791,218.566,250.325,219.1,250.859z"/>
<path d="M226.035,266.328c0.533,0.532,1.6,0.532,1.066,0l0,0v-0.533v-0.534v-0.533v-0.534v-0.534v-0.531v-0.534v-0.533v-0.534
	v-0.534v-0.533v-0.532v-0.533v-0.534v-0.533l0,0c-0.533-0.534-1.601,0-1.066,0.533l0,0v0.534v0.533v0.532v0.533v0.534v0.534v0.533
	v0.534v0.531v0.534v0.534v0.533v0.534V266.328L226.035,266.328L226.035,266.328z"/>
<path d="M229.234,274.329v1.602v0.531v0.534v0.534v0.533v0.534l0,0c0,0.533,1.068,0,1.068-0.534l0,0v-0.533v-0.534v-0.534v-0.531
	v-0.534v-0.533v-0.534v-0.534v-0.533v-0.532v-0.533v-0.534v-0.533v-0.534v-0.534c0-0.533-1.068,0-1.068,0.534v0.534v0.533v0.534
	v0.533v0.532v0.533V274.329L229.234,274.329L229.234,274.329z"/>
<path d="M231.902,282.33v0.533v0.534v0.534v0.533v0.534v0.533v0.532v0.533v0.534v0.534v0.533v0.534v0.531v0.534v0.534l0,0
	c0,0.533,1.067,0,1.067-0.534l0,0v-0.534v-0.531v-0.534v-0.533v-0.534v-0.534v-0.533v-0.532v-0.533v-0.534v-0.533v-0.534v-0.534
	v-0.533l0,0C232.97,281.265,231.902,281.798,231.902,282.33z"/>
</svg>
