<?xml version="1.0" encoding="utf-8"?>
<!-- Generator: Adobe Illustrator 16.0.0, SVG Export Plug-In . SVG Version: 6.00 Build 0)  -->
<!DOCTYPE svg PUBLIC "-//W3C//DTD SVG 1.1//EN" "http://www.w3.org/Graphics/SVG/1.1/DTD/svg11.dtd">
<svg version="1.1" id="Layer_1" xmlns="http://www.w3.org/2000/svg" xmlns:xlink="http://www.w3.org/1999/xlink" x="0px" y="0px"
	 width="144px" height="321px" viewBox="0 0 144 321" enable-background="new 0 0 144 321" xml:space="preserve">
<g opacity="0.5">
	<path fill="none" stroke="#95979A" stroke-width="1.9693" stroke-linecap="round" stroke-miterlimit="10" d="M56.251,228.929
		c0,0-3.275,29.836,4.63,40.404"/>
	<path fill="none" stroke="#95979A" stroke-width="1.9693" stroke-linecap="round" stroke-miterlimit="10" d="M73.79,236.683
		c0,0-3.275,29.834,4.631,40.402"/>
	<rect x="56.435" y="312.546" fill="#363636" width="35.384" height="8.454"/>
	<g>
		<g>
			<path fill="#6F7173" d="M95.537,210.085c1.426,6.71-1.637,13.046-1.637,13.046s-5.375-4.542-6.801-11.253
				c-1.427-6.709,1.636-13.047,1.636-13.047S94.111,203.374,95.537,210.085z"/>
			<path fill="#95979A" d="M94.634,216.134c0.718,3.379-0.823,6.57-0.823,6.57s-2.707-2.288-3.426-5.668
				c-0.719-3.379,0.824-6.57,0.824-6.57S93.916,212.755,94.634,216.134z"/>
		</g>
		<g>
			<path fill="#6F7173" d="M89.221,222.901c1.635,7.688-1.875,14.949-1.875,14.949s-6.159-5.206-7.793-12.895
				c-1.635-7.688,1.875-14.949,1.875-14.949S87.586,215.212,89.221,222.901z"/>
			<path fill="#95979A" d="M88.186,229.832c0.823,3.872-0.943,7.528-0.943,7.528s-3.103-2.621-3.926-6.494
				c-0.822-3.871,0.944-7.527,0.944-7.527S87.363,225.96,88.186,229.832z"/>
		</g>
		<g>
			<path fill="#6F7173" stroke="#6F7173" stroke-miterlimit="10" d="M104.148,227.405c-6.089,4.377-13.777,4.097-13.777,4.097
				s2.185-7.377,8.273-11.754c6.09-4.378,13.778-4.097,13.778-4.097S110.238,223.028,104.148,227.405z"/>
			<path fill="#95979A" d="M97.697,229.159c-3.066,2.205-6.938,2.064-6.938,2.064s1.1-3.716,4.166-5.92
				c3.066-2.205,6.938-2.063,6.938-2.063S100.764,226.956,97.697,229.159z"/>
		</g>
		<g>
			<path fill="#6F7173" d="M82.932,235.419c4.317,5.994,4.049,13.568,4.049,13.568s-7.27-2.145-11.586-8.14
				c-4.318-5.995-4.049-13.568-4.049-13.568S78.614,229.425,82.932,235.419z"/>
			<path fill="#95979A" d="M84.666,241.772c2.175,3.019,2.039,6.833,2.039,6.833s-3.66-1.08-5.834-4.099
				c-2.175-3.02-2.039-6.834-2.039-6.834S82.492,238.753,84.666,241.772z"/>
		</g>
		<g>
			<path fill="#6F7173" d="M80.264,251.999c5.369,5.313,6.382,12.996,6.382,12.996s-7.694-0.932-13.063-6.244
				c-5.369-5.314-6.381-12.997-6.381-12.997S74.895,246.686,80.264,251.999z"/>
			<path fill="#95979A" d="M83.09,258.112c2.703,2.676,3.213,6.545,3.213,6.545s-3.874-0.469-6.578-3.145
				c-2.703-2.676-3.213-6.546-3.213-6.546S80.385,255.437,83.09,258.112z"/>
		</g>
		<g>
			<path fill="#6F7173" d="M99.002,243.999c-5.004,5.509-12.523,6.828-12.523,6.828s0.593-7.611,5.598-13.121
				c5.004-5.508,12.523-6.828,12.523-6.828S104.007,238.49,99.002,243.999z"/>
			<path fill="#95979A" d="M93.104,247.038c-2.521,2.773-6.308,3.438-6.308,3.438s0.299-3.833,2.818-6.607
				c2.521-2.773,6.309-3.438,6.309-3.438S95.625,244.264,93.104,247.038z"/>
		</g>
		<g>
			<path fill="#6F7173" d="M96.189,257.749c-3.216,4.58-8.703,6.271-8.703,6.271s-0.271-5.735,2.944-10.315s8.704-6.271,8.704-6.271
				S99.406,253.168,96.189,257.749z"/>
			<path fill="#95979A" d="M92.074,260.569c-1.619,2.307-4.383,3.158-4.383,3.158s-0.137-2.889,1.482-5.195
				c1.62-2.307,4.383-3.158,4.383-3.158S93.694,258.263,92.074,260.569z"/>
		</g>
		<g>
			<path fill="#6F7173" d="M109.867,206.741c-3.788,5.833-10.527,8.18-10.527,8.18s-0.596-7.11,3.191-12.943
				c3.789-5.834,10.527-8.182,10.527-8.182S113.655,200.907,109.867,206.741z"/>
			<path fill="#95979A" d="M104.883,210.43c-1.908,2.938-5.301,4.12-5.301,4.12s-0.301-3.581,1.607-6.52
				c1.907-2.938,5.301-4.119,5.301-4.119S106.791,207.491,104.883,210.43z"/>
		</g>
		<path fill="none" stroke="#95979A" stroke-width="1.9693" stroke-linecap="round" stroke-miterlimit="10" d="M102.21,210.503
			c0,0-17.778,21.854-15.798,43.228c0.494,5.344,1.105,10.349-2.002,17.251"/>
	</g>
	<g>
		<g>
			<path fill="#95979A" d="M55.539,198.161c-1.426,6.709,1.636,13.047,1.636,13.047s5.375-4.543,6.801-11.254
				c1.426-6.71-1.636-13.046-1.636-13.046S56.965,191.45,55.539,198.161z"/>
			<path fill="#6F7173" d="M56.441,204.21c-0.718,3.379,0.824,6.57,0.824,6.57s2.707-2.288,3.425-5.668
				c0.718-3.379-0.824-6.57-0.824-6.57S57.16,200.831,56.441,204.21z"/>
		</g>
		<g>
			<path fill="#95979A" d="M61.855,210.978c-1.634,7.688,1.875,14.949,1.875,14.949s6.159-5.205,7.793-12.895
				c1.634-7.688-1.875-14.949-1.875-14.949S63.489,203.288,61.855,210.978z"/>
			<path fill="#6F7173" d="M62.89,217.909c-0.823,3.871,0.944,7.527,0.944,7.527s3.102-2.621,3.924-6.493
				c0.823-3.872-0.944-7.528-0.944-7.528S63.713,214.036,62.89,217.909z"/>
		</g>
		<g>
			<path fill="#95979A" d="M46.926,215.481c6.089,4.377,13.778,4.098,13.778,4.098s-2.185-7.377-8.274-11.755
				s-13.778-4.097-13.778-4.097S40.837,211.104,46.926,215.481z"/>
			<path fill="#6F7173" d="M53.378,217.236c3.066,2.204,6.938,2.063,6.938,2.063s-1.1-3.715-4.167-5.92
				c-3.066-2.204-6.938-2.063-6.938-2.063S50.311,215.032,53.378,217.236z"/>
		</g>
		<g>
			<path fill="#95979A" d="M68.144,223.495c-4.317,5.995-4.048,13.568-4.048,13.568s7.269-2.145,11.586-8.139
				c4.317-5.995,4.049-13.568,4.049-13.568S72.461,217.501,68.144,223.495z"/>
			<path fill="#6F7173" d="M66.409,229.849c-2.174,3.02-2.039,6.834-2.039,6.834s3.661-1.08,5.835-4.1s2.039-6.833,2.039-6.833
				S68.583,226.83,66.409,229.849z"/>
		</g>
		<g>
			<path fill="#95979A" d="M69.777,239.057c-5.369,5.313-6.381,12.997-6.381,12.997s7.693-0.932,13.063-6.246
				c5.369-5.313,6.381-12.996,6.381-12.996S75.146,233.743,69.777,239.057z"/>
			<path fill="#6F7173" d="M66.951,245.169c-2.704,2.676-3.213,6.545-3.213,6.545s3.874-0.469,6.578-3.145
				c2.704-2.676,3.213-6.545,3.213-6.545S69.655,242.493,66.951,245.169z"/>
		</g>
		<g>
			<path fill="#95979A" d="M52.787,235.958c5.004,5.509,12.524,6.828,12.524,6.828s-0.593-7.612-5.597-13.121
				c-5.004-5.508-12.525-6.828-12.525-6.828S47.783,230.449,52.787,235.958z"/>
			<path fill="#6F7173" d="M58.686,238.997c2.52,2.773,6.308,3.438,6.308,3.438s-0.299-3.833-2.819-6.607
				c-2.52-2.773-6.307-3.438-6.307-3.438S56.166,236.222,58.686,238.997z"/>
		</g>
		<g>
			<path fill="#95979A" d="M55.687,252.34c3.216,4.58,8.703,6.271,8.703,6.271s0.272-5.734-2.944-10.314s-8.704-6.271-8.704-6.271
				S52.47,247.76,55.687,252.34z"/>
			<path fill="#6F7173" d="M59.802,255.161c1.62,2.307,4.383,3.158,4.383,3.158s0.137-2.889-1.483-5.195s-4.383-3.158-4.383-3.158
				S58.182,252.854,59.802,255.161z"/>
		</g>
		<g>
			<path fill="#95979A" d="M41.208,194.816c3.789,5.833,10.527,8.181,10.527,8.181s0.597-7.109-3.191-12.943
				c-3.788-5.834-10.527-8.182-10.527-8.182S37.42,188.983,41.208,194.816z"/>
			<path fill="#6F7173" d="M46.192,198.507c1.908,2.938,5.301,4.119,5.301,4.119s0.301-3.58-1.607-6.52
				c-1.908-2.938-5.302-4.119-5.302-4.119S44.285,195.569,46.192,198.507z"/>
		</g>
		<path fill="none" stroke="#6F7173" stroke-width="1.9693" stroke-linecap="round" stroke-miterlimit="10" d="M48.866,198.579
			c0,0,17.778,21.854,15.798,43.229c-0.495,5.344-2.715,19.975,3.644,31.488"/>
	</g>
	<path fill="#363636" stroke="#363636" stroke-miterlimit="10" d="M92.336,315.312H55.917c-4.536,0-8.212-3.676-8.212-8.212v-40.152
		h52.844V307.1C100.549,311.636,96.871,315.312,92.336,315.312z"/>
</g>
</svg>
