<?xml version="1.0" encoding="utf-8"?>
<!-- Generator: Adobe Illustrator 16.0.0, SVG Export Plug-In . SVG Version: 6.00 Build 0)  -->
<!DOCTYPE svg PUBLIC "-//W3C//DTD SVG 1.1//EN" "http://www.w3.org/Graphics/SVG/1.1/DTD/svg11.dtd">
<svg version="1.1" id="Layer_1" xmlns="http://www.w3.org/2000/svg" xmlns:xlink="http://www.w3.org/1999/xlink" x="0px" y="0px"
	 width="144px" height="321px" viewBox="0 0 144 321" enable-background="new 0 0 144 321" xml:space="preserve">
<g>
	<path fill="none" stroke="#95979A" stroke-width="1.9693" stroke-linecap="round" stroke-miterlimit="10" d="M61.812,265.365
		c0,0-1.979,18.028,2.798,24.415"/>
	<path fill="none" stroke="#95979A" stroke-width="1.9693" stroke-linecap="round" stroke-miterlimit="10" d="M72.41,270.051
		c0,0-1.979,18.027,2.797,24.413"/>
	<rect x="61.922" y="315.892" fill="#363636" width="21.381" height="5.108"/>
	<g>
		<g>
			<path fill="#6F7173" d="M85.551,253.979c0.861,4.055-0.988,7.884-0.988,7.884s-3.248-2.745-4.109-6.8
				c-0.863-4.055,0.987-7.884,0.987-7.884S84.689,249.924,85.551,253.979z"/>
			<path fill="#95979A" d="M85.004,257.634c0.436,2.042-0.496,3.97-0.496,3.97s-1.636-1.382-2.07-3.425
				c-0.434-2.041,0.498-3.97,0.498-3.97S84.571,255.592,85.004,257.634z"/>
		</g>
		<g>
			<path fill="#6F7173" d="M81.734,261.724c0.988,4.646-1.133,9.033-1.133,9.033s-3.723-3.146-4.71-7.792s1.133-9.032,1.133-9.032
				S80.746,257.077,81.734,261.724z"/>
			<path fill="#95979A" d="M81.108,265.911c0.497,2.34-0.569,4.549-0.569,4.549s-1.876-1.584-2.373-3.924
				c-0.496-2.339,0.57-4.549,0.57-4.549S80.611,263.571,81.108,265.911z"/>
		</g>
		<g>
			<path fill="#6F7173" stroke="#6F7173" stroke-miterlimit="10" d="M90.754,264.444c-3.68,2.646-8.324,2.477-8.324,2.477
				s1.318-4.458,4.999-7.104c3.679-2.646,8.326-2.475,8.326-2.475S94.435,261.8,90.754,264.444z"/>
			<path fill="#95979A" d="M86.855,265.505c-1.852,1.332-4.191,1.247-4.191,1.247s0.664-2.245,2.518-3.577
				c1.853-1.332,4.191-1.247,4.191-1.247S88.709,264.173,86.855,265.505z"/>
		</g>
		<g>
			<path fill="#6F7173" d="M77.934,269.287c2.608,3.622,2.447,8.198,2.447,8.198s-4.394-1.295-7.002-4.918
				c-2.609-3.623-2.446-8.199-2.446-8.199S75.324,265.665,77.934,269.287z"/>
			<path fill="#95979A" d="M78.982,273.127c1.313,1.823,1.231,4.128,1.231,4.128s-2.212-0.652-3.525-2.477
				c-1.314-1.824-1.232-4.129-1.232-4.129S77.668,271.302,78.982,273.127z"/>
		</g>
		<g>
			<path fill="#6F7173" d="M76.322,279.306c3.244,3.21,3.855,7.854,3.855,7.854s-4.648-0.564-7.894-3.773
				c-3.245-3.212-3.855-7.854-3.855-7.854S73.078,276.095,76.322,279.306z"/>
			<path fill="#95979A" d="M78.028,282.999c1.635,1.617,1.942,3.955,1.942,3.955s-2.342-0.283-3.975-1.899
				c-1.633-1.617-1.941-3.956-1.941-3.956S76.395,281.383,78.028,282.999z"/>
		</g>
		<g>
			<path fill="#6F7173" d="M87.644,274.472c-3.022,3.329-7.566,4.126-7.566,4.126s0.357-4.6,3.382-7.929
				c3.023-3.328,7.568-4.127,7.568-4.127S90.668,271.143,87.644,274.472z"/>
			<path fill="#95979A" d="M84.08,276.308c-1.521,1.676-3.811,2.077-3.811,2.077s0.181-2.315,1.703-3.992
				c1.522-1.676,3.813-2.077,3.813-2.077S85.604,274.632,84.08,276.308z"/>
		</g>
		<g>
			<path fill="#6F7173" d="M85.945,282.78c-1.943,2.768-5.26,3.789-5.26,3.789s-0.164-3.466,1.779-6.232
				c1.943-2.769,5.26-3.791,5.26-3.791S87.889,280.012,85.945,282.78z"/>
			<path fill="#95979A" d="M83.459,284.484c-0.979,1.394-2.648,1.908-2.648,1.908s-0.083-1.745,0.896-3.14
				c0.978-1.394,2.647-1.908,2.647-1.908S84.437,283.091,83.459,284.484z"/>
		</g>
		<g>
			<path fill="#6F7173" d="M94.21,251.959c-2.29,3.524-6.361,4.942-6.361,4.942s-0.36-4.297,1.929-7.821
				c2.289-3.525,6.361-4.944,6.361-4.944S96.498,248.433,94.21,251.959z"/>
			<path fill="#95979A" d="M91.198,254.188c-1.153,1.775-3.203,2.489-3.203,2.489s-0.183-2.164,0.972-3.939
				c1.151-1.775,3.202-2.489,3.202-2.489S92.352,252.411,91.198,254.188z"/>
		</g>
		<path fill="none" stroke="#95979A" stroke-width="1.9693" stroke-linecap="round" stroke-miterlimit="10" d="M89.582,254.231
			c0,0-10.742,13.204-9.545,26.12c0.299,3.229,0.668,6.254-1.21,10.425"/>
	</g>
	<g>
		<g>
			<path fill="#95979A" d="M61.381,246.773c-0.862,4.054,0.989,7.884,0.989,7.884s3.248-2.744,4.11-6.8
				c0.861-4.055-0.989-7.884-0.989-7.884S62.243,242.719,61.381,246.773z"/>
			<path fill="#6F7173" d="M61.927,250.429c-0.435,2.042,0.498,3.97,0.498,3.97s1.636-1.382,2.069-3.425
				c0.434-2.041-0.498-3.97-0.498-3.97S62.361,248.387,61.927,250.429z"/>
		</g>
		<g>
			<path fill="#95979A" d="M65.198,254.519c-0.987,4.646,1.132,9.033,1.132,9.033s3.722-3.146,4.71-7.792
				c0.986-4.646-1.133-9.033-1.133-9.033S66.186,249.872,65.198,254.519z"/>
			<path fill="#6F7173" d="M65.823,258.707c-0.498,2.339,0.57,4.548,0.57,4.548s1.875-1.584,2.372-3.924
				c0.498-2.339-0.57-4.549-0.57-4.549S66.32,256.366,65.823,258.707z"/>
		</g>
		<g>
			<path fill="#95979A" d="M56.177,257.239c3.68,2.645,8.326,2.477,8.326,2.477s-1.32-4.458-5-7.104
				c-3.679-2.645-8.325-2.475-8.325-2.475S52.498,254.595,56.177,257.239z"/>
			<path fill="#6F7173" d="M60.076,258.3c1.853,1.332,4.192,1.247,4.192,1.247s-0.665-2.245-2.518-3.577s-4.193-1.246-4.193-1.246
				S58.222,256.968,60.076,258.3z"/>
		</g>
		<g>
			<path fill="#95979A" d="M68.998,262.082c-2.609,3.622-2.446,8.198-2.446,8.198s4.392-1.295,7.001-4.917
				c2.608-3.623,2.446-8.2,2.446-8.2S71.607,258.46,68.998,262.082z"/>
			<path fill="#6F7173" d="M67.95,265.921c-1.314,1.825-1.232,4.13-1.232,4.13s2.212-0.653,3.526-2.478s1.232-4.129,1.232-4.129
				S69.264,264.097,67.95,265.921z"/>
		</g>
		<g>
			<path fill="#95979A" d="M69.985,271.485c-3.245,3.211-3.856,7.854-3.856,7.854s4.648-0.563,7.895-3.774
				c3.244-3.21,3.855-7.853,3.855-7.853S73.229,268.274,69.985,271.485z"/>
			<path fill="#6F7173" d="M68.277,275.179c-1.633,1.616-1.941,3.955-1.941,3.955s2.34-0.284,3.975-1.9
				c1.634-1.617,1.941-3.955,1.941-3.955S69.911,273.562,68.277,275.179z"/>
		</g>
		<g>
			<path fill="#95979A" d="M59.719,269.613c3.023,3.327,7.568,4.125,7.568,4.125s-0.358-4.6-3.382-7.928s-7.568-4.126-7.568-4.126
				S56.695,266.284,59.719,269.613z"/>
			<path fill="#6F7173" d="M63.283,271.449c1.522,1.676,3.812,2.077,3.812,2.077s-0.181-2.316-1.704-3.993
				c-1.522-1.675-3.811-2.077-3.811-2.077S61.76,269.772,63.283,271.449z"/>
		</g>
		<g>
			<path fill="#95979A" d="M61.47,279.512c1.943,2.768,5.259,3.789,5.259,3.789s0.165-3.465-1.779-6.232
				c-1.943-2.768-5.259-3.79-5.259-3.79S59.527,276.744,61.47,279.512z"/>
			<path fill="#6F7173" d="M63.958,281.217c0.979,1.394,2.648,1.908,2.648,1.908s0.083-1.746-0.896-3.139
				c-0.979-1.395-2.648-1.909-2.648-1.909S62.979,279.822,63.958,281.217z"/>
		</g>
		<g>
			<path fill="#95979A" d="M52.722,244.753c2.289,3.524,6.36,4.943,6.36,4.943s0.361-4.296-1.928-7.821
				c-2.288-3.525-6.361-4.944-6.361-4.944S50.433,241.228,52.722,244.753z"/>
			<path fill="#6F7173" d="M55.734,246.982c1.152,1.775,3.204,2.489,3.204,2.489s0.181-2.163-0.972-3.939
				c-1.153-1.775-3.204-2.489-3.204-2.489S54.581,245.208,55.734,246.982z"/>
		</g>
		<path fill="none" stroke="#6F7173" stroke-width="1.9693" stroke-linecap="round" stroke-miterlimit="10" d="M57.349,247.026
			c0,0,10.743,13.205,9.547,26.121c-0.3,3.229-1.641,12.069,2.201,19.027"/>
	</g>
	<path fill="#363636" stroke="#363636" stroke-miterlimit="10" d="M83.615,317.563H61.61c-2.741,0-4.962-2.221-4.962-4.962v-24.263
		h31.931v24.263C88.579,315.342,86.357,317.563,83.615,317.563z"/>
</g>
</svg>
