<?xml version="1.0" encoding="utf-8"?>
<!-- Generator: Adobe Illustrator 16.0.0, SVG Export Plug-In . SVG Version: 6.00 Build 0)  -->
<!DOCTYPE svg PUBLIC "-//W3C//DTD SVG 1.1//EN" "http://www.w3.org/Graphics/SVG/1.1/DTD/svg11.dtd">
<svg version="1.1" id="Layer_1" xmlns="http://www.w3.org/2000/svg" xmlns:xlink="http://www.w3.org/1999/xlink" x="0px" y="0px"
	 width="144px" height="321px" viewBox="0 0 144 321" enable-background="new 0 0 144 321" xml:space="preserve">
<g>
	<path fill="none" stroke="#95979A" stroke-width="1.9693" stroke-linecap="round" stroke-miterlimit="10" d="M61.812,245.364
		c0,0-1.979,18.029,2.798,24.416"/>
	<path fill="none" stroke="#95979A" stroke-width="1.9693" stroke-linecap="round" stroke-miterlimit="10" d="M72.41,250.051
		c0,0-1.979,18.027,2.797,24.413"/>
	<rect x="61.922" y="295.892" fill="#363636" width="21.381" height="5.108"/>
	<g>
		<g>
			<path fill="#6F7173" d="M85.551,233.979c0.861,4.055-0.988,7.883-0.988,7.883s-3.248-2.744-4.108-6.799
				c-0.863-4.056,0.987-7.885,0.987-7.885S84.689,229.924,85.551,233.979z"/>
			<path fill="#95979A" d="M85.004,237.634c0.436,2.042-0.496,3.971-0.496,3.971s-1.636-1.383-2.07-3.426
				c-0.434-2.041,0.498-3.97,0.498-3.97S84.57,235.592,85.004,237.634z"/>
		</g>
		<g>
			<path fill="#6F7173" d="M81.734,241.724c0.988,4.646-1.133,9.033-1.133,9.033s-3.724-3.146-4.711-7.792
				c-0.986-4.646,1.133-9.032,1.133-9.032S80.746,237.077,81.734,241.724z"/>
			<path fill="#95979A" d="M81.107,245.911c0.498,2.34-0.568,4.549-0.568,4.549s-1.876-1.584-2.373-3.924
				c-0.496-2.34,0.57-4.549,0.57-4.549S80.611,243.571,81.107,245.911z"/>
		</g>
		<g>
			<path fill="#6F7173" stroke="#6F7173" stroke-miterlimit="10" d="M90.754,244.444c-3.68,2.646-8.324,2.477-8.324,2.477
				s1.318-4.458,5-7.104c3.678-2.646,8.325-2.476,8.325-2.476S94.436,241.8,90.754,244.444z"/>
			<path fill="#95979A" d="M86.855,245.505c-1.853,1.332-4.191,1.247-4.191,1.247s0.664-2.245,2.518-3.577s4.191-1.247,4.191-1.247
				S88.709,244.173,86.855,245.505z"/>
		</g>
		<g>
			<path fill="#6F7173" d="M77.934,249.287c2.608,3.622,2.447,8.198,2.447,8.198s-4.395-1.295-7.002-4.918
				c-2.609-3.623-2.446-8.199-2.446-8.199S75.324,245.665,77.934,249.287z"/>
			<path fill="#95979A" d="M78.982,253.127c1.313,1.823,1.23,4.128,1.23,4.128s-2.212-0.652-3.525-2.477s-1.231-4.129-1.231-4.129
				S77.668,251.302,78.982,253.127z"/>
		</g>
		<g>
			<path fill="#6F7173" d="M76.322,259.306c3.244,3.211,3.854,7.854,3.854,7.854s-4.647-0.563-7.894-3.773
				c-3.245-3.212-3.855-7.854-3.855-7.854S73.078,256.095,76.322,259.306z"/>
			<path fill="#95979A" d="M78.027,262.999c1.636,1.617,1.943,3.955,1.943,3.955s-2.343-0.283-3.976-1.898
				c-1.634-1.617-1.94-3.957-1.94-3.957S76.395,261.383,78.027,262.999z"/>
		</g>
		<g>
			<path fill="#6F7173" d="M87.645,254.472c-3.022,3.329-7.566,4.127-7.566,4.127s0.357-4.601,3.382-7.93
				c3.022-3.328,7.567-4.127,7.567-4.127S90.668,251.144,87.645,254.472z"/>
			<path fill="#95979A" d="M84.08,256.308c-1.521,1.676-3.811,2.077-3.811,2.077s0.181-2.315,1.703-3.991
				c1.521-1.677,3.813-2.078,3.813-2.078S85.604,254.632,84.08,256.308z"/>
		</g>
		<g>
			<path fill="#6F7173" d="M85.945,262.78c-1.943,2.768-5.26,3.789-5.26,3.789s-0.164-3.467,1.778-6.232
				c1.943-2.77,5.261-3.791,5.261-3.791S87.889,260.012,85.945,262.78z"/>
			<path fill="#95979A" d="M83.459,264.483c-0.979,1.395-2.648,1.908-2.648,1.908s-0.082-1.744,0.896-3.14
				c0.979-1.394,2.646-1.908,2.646-1.908S84.438,263.091,83.459,264.483z"/>
		</g>
		<g>
			<path fill="#6F7173" d="M94.21,231.959c-2.29,3.524-6.36,4.942-6.36,4.942s-0.361-4.297,1.928-7.821s6.361-4.944,6.361-4.944
				S96.498,228.433,94.21,231.959z"/>
			<path fill="#95979A" d="M91.198,234.188c-1.153,1.774-3.203,2.488-3.203,2.488s-0.183-2.164,0.972-3.939
				c1.151-1.774,3.202-2.488,3.202-2.488S92.352,232.411,91.198,234.188z"/>
		</g>
		<path fill="none" stroke="#95979A" stroke-width="1.9693" stroke-linecap="round" stroke-miterlimit="10" d="M89.582,234.231
			c0,0-10.742,13.203-9.545,26.119c0.299,3.229,0.668,6.254-1.21,10.426"/>
	</g>
	<g>
		<g>
			<path fill="#95979A" d="M61.381,226.772c-0.862,4.055,0.989,7.885,0.989,7.885s3.248-2.744,4.11-6.801
				c0.861-4.055-0.989-7.883-0.989-7.883S62.243,222.719,61.381,226.772z"/>
			<path fill="#6F7173" d="M61.927,230.429c-0.435,2.042,0.498,3.971,0.498,3.971s1.636-1.383,2.069-3.426
				c0.434-2.041-0.498-3.97-0.498-3.97S62.361,228.387,61.927,230.429z"/>
		</g>
		<g>
			<path fill="#95979A" d="M65.198,234.519c-0.987,4.646,1.132,9.033,1.132,9.033s3.722-3.146,4.71-7.792
				c0.986-4.646-1.133-9.032-1.133-9.032S66.186,229.872,65.198,234.519z"/>
			<path fill="#6F7173" d="M65.823,238.707c-0.498,2.339,0.57,4.548,0.57,4.548s1.875-1.584,2.372-3.924
				c0.498-2.339-0.57-4.549-0.57-4.549S66.32,236.366,65.823,238.707z"/>
		</g>
		<g>
			<path fill="#95979A" d="M56.177,237.239c3.68,2.645,8.326,2.477,8.326,2.477s-1.32-4.458-5-7.104
				c-3.679-2.646-8.325-2.476-8.325-2.476S52.498,234.595,56.177,237.239z"/>
			<path fill="#6F7173" d="M60.076,238.3c1.853,1.332,4.192,1.247,4.192,1.247s-0.665-2.245-2.518-3.577s-4.193-1.246-4.193-1.246
				S58.222,236.968,60.076,238.3z"/>
		</g>
		<g>
			<path fill="#95979A" d="M68.998,242.082c-2.609,3.622-2.446,8.198-2.446,8.198s4.392-1.295,7.001-4.918
				c2.608-3.622,2.446-8.199,2.446-8.199S71.607,238.46,68.998,242.082z"/>
			<path fill="#6F7173" d="M67.95,245.921c-1.314,1.825-1.232,4.13-1.232,4.13s2.212-0.653,3.526-2.478
				c1.314-1.825,1.232-4.129,1.232-4.129S69.264,244.097,67.95,245.921z"/>
		</g>
		<g>
			<path fill="#95979A" d="M69.985,251.485c-3.245,3.211-3.856,7.854-3.856,7.854s4.648-0.563,7.895-3.773
				c3.244-3.211,3.855-7.854,3.855-7.854S73.229,248.274,69.985,251.485z"/>
			<path fill="#6F7173" d="M68.277,255.179c-1.633,1.616-1.941,3.955-1.941,3.955s2.34-0.283,3.975-1.9
				c1.634-1.616,1.941-3.955,1.941-3.955S69.911,253.562,68.277,255.179z"/>
		</g>
		<g>
			<path fill="#95979A" d="M59.719,249.612c3.023,3.328,7.568,4.125,7.568,4.125s-0.358-4.6-3.382-7.928
				c-3.024-3.328-7.568-4.125-7.568-4.125S56.695,246.284,59.719,249.612z"/>
			<path fill="#6F7173" d="M63.283,251.449c1.522,1.676,3.812,2.077,3.812,2.077s-0.181-2.316-1.704-3.993
				c-1.522-1.675-3.811-2.077-3.811-2.077S61.76,249.772,63.283,251.449z"/>
		</g>
		<g>
			<path fill="#95979A" d="M61.47,259.512c1.943,2.769,5.259,3.789,5.259,3.789s0.165-3.465-1.779-6.231
				c-1.943-2.769-5.259-3.791-5.259-3.791S59.527,256.744,61.47,259.512z"/>
			<path fill="#6F7173" d="M63.958,261.217c0.979,1.394,2.648,1.908,2.648,1.908s0.083-1.746-0.896-3.14
				c-0.979-1.395-2.648-1.908-2.648-1.908S62.979,259.821,63.958,261.217z"/>
		</g>
		<g>
			<path fill="#95979A" d="M52.722,224.753c2.289,3.523,6.36,4.943,6.36,4.943s0.361-4.297-1.928-7.821
				c-2.288-3.524-6.361-4.944-6.361-4.944S50.433,221.228,52.722,224.753z"/>
			<path fill="#6F7173" d="M55.734,226.981c1.152,1.775,3.204,2.489,3.204,2.489s0.181-2.163-0.972-3.938
				c-1.153-1.775-3.204-2.489-3.204-2.489S54.581,225.208,55.734,226.981z"/>
		</g>
		<path fill="none" stroke="#6F7173" stroke-width="1.9693" stroke-linecap="round" stroke-miterlimit="10" d="M57.349,227.026
			c0,0,10.743,13.205,9.547,26.121c-0.3,3.229-1.641,12.068,2.201,19.026"/>
	</g>
	<path fill="#363636" stroke="#363636" stroke-miterlimit="10" d="M83.615,297.563H61.61c-2.741,0-4.962-2.221-4.962-4.962v-24.263
		h31.931v24.263C88.579,295.342,86.357,297.563,83.615,297.563z"/>
</g>
</svg>
