<?xml version="1.0" encoding="utf-8"?>
<!-- Generator: Adobe Illustrator 16.0.0, SVG Export Plug-In . SVG Version: 6.00 Build 0)  -->
<!DOCTYPE svg PUBLIC "-//W3C//DTD SVG 1.1//EN" "http://www.w3.org/Graphics/SVG/1.1/DTD/svg11.dtd">
<svg version="1.1" id="Layer_1" xmlns="http://www.w3.org/2000/svg" xmlns:xlink="http://www.w3.org/1999/xlink" x="0px" y="0px"
	 width="144px" height="321px" viewBox="0 0 144 321" enable-background="new 0 0 144 321" xml:space="preserve">
<g>
	<path fill="none" stroke="#95979A" stroke-width="1.9693" stroke-linecap="round" stroke-miterlimit="10" d="M59.812,245.365
		c0,0-1.979,18.027,2.798,24.414"/>
	<path fill="none" stroke="#95979A" stroke-width="1.9693" stroke-linecap="round" stroke-miterlimit="10" d="M70.41,250.051
		c0,0-1.979,18.027,2.797,24.413"/>
	<rect x="59.922" y="295.892" fill="#363636" width="21.381" height="5.108"/>
	<g>
		<g>
			<path fill="#6F7173" d="M83.551,233.979c0.861,4.056-0.988,7.885-0.988,7.885s-3.248-2.745-4.108-6.801
				c-0.863-4.055,0.987-7.883,0.987-7.883S82.689,229.924,83.551,233.979z"/>
			<path fill="#95979A" d="M83.004,237.634c0.436,2.042-0.496,3.97-0.496,3.97s-1.636-1.381-2.07-3.424
				c-0.434-2.041,0.498-3.971,0.498-3.971S82.57,235.592,83.004,237.634z"/>
		</g>
		<g>
			<path fill="#6F7173" d="M79.734,241.725c0.988,4.646-1.133,9.032-1.133,9.032s-3.724-3.146-4.711-7.792
				c-0.986-4.646,1.133-9.031,1.133-9.031S78.746,237.077,79.734,241.725z"/>
			<path fill="#95979A" d="M79.107,245.911c0.498,2.34-0.568,4.549-0.568,4.549s-1.876-1.584-2.373-3.924
				c-0.496-2.339,0.57-4.55,0.57-4.55S78.611,243.57,79.107,245.911z"/>
		</g>
		<g>
			<path fill="#6F7173" stroke="#6F7173" stroke-miterlimit="10" d="M88.754,244.443c-3.68,2.646-8.324,2.478-8.324,2.478
				s1.318-4.458,5-7.104c3.678-2.646,8.325-2.475,8.325-2.475S92.436,241.8,88.754,244.443z"/>
			<path fill="#95979A" d="M84.855,245.505c-1.853,1.332-4.191,1.247-4.191,1.247s0.664-2.245,2.518-3.577s4.191-1.247,4.191-1.247
				S86.709,244.173,84.855,245.505z"/>
		</g>
		<g>
			<path fill="#6F7173" d="M75.934,249.287c2.608,3.622,2.447,8.197,2.447,8.197s-4.395-1.295-7.002-4.918
				c-2.609-3.623-2.446-8.198-2.446-8.198S73.324,245.665,75.934,249.287z"/>
			<path fill="#95979A" d="M76.982,253.127c1.313,1.823,1.23,4.128,1.23,4.128s-2.212-0.651-3.525-2.478
				c-1.313-1.823-1.231-4.129-1.231-4.129S75.668,251.302,76.982,253.127z"/>
		</g>
		<g>
			<path fill="#6F7173" d="M74.322,259.307c3.244,3.209,3.854,7.854,3.854,7.854s-4.647-0.564-7.894-3.773
				c-3.245-3.212-3.855-7.854-3.855-7.854S71.078,256.096,74.322,259.307z"/>
			<path fill="#95979A" d="M76.027,262.999c1.636,1.617,1.943,3.955,1.943,3.955s-2.343-0.283-3.976-1.899
				c-1.633-1.617-1.941-3.955-1.941-3.955S74.395,261.383,76.027,262.999z"/>
		</g>
		<g>
			<path fill="#6F7173" d="M85.645,254.473c-3.022,3.328-7.566,4.125-7.566,4.125s0.357-4.6,3.382-7.929
				c3.022-3.328,7.567-4.127,7.567-4.127S88.668,251.143,85.645,254.473z"/>
			<path fill="#95979A" d="M82.08,256.309c-1.521,1.676-3.811,2.076-3.811,2.076s0.181-2.314,1.703-3.992
				c1.521-1.676,3.813-2.076,3.813-2.076S83.604,254.632,82.08,256.309z"/>
		</g>
		<g>
			<path fill="#6F7173" d="M83.945,262.779c-1.943,2.769-5.26,3.789-5.26,3.789s-0.164-3.465,1.778-6.231
				c1.943-2.769,5.261-3.791,5.261-3.791S85.889,260.012,83.945,262.779z"/>
			<path fill="#95979A" d="M81.459,264.484c-0.979,1.394-2.648,1.908-2.648,1.908s-0.082-1.746,0.896-3.141s2.646-1.908,2.646-1.908
				S82.438,263.091,81.459,264.484z"/>
		</g>
		<g>
			<path fill="#6F7173" d="M92.21,231.959c-2.29,3.523-6.36,4.941-6.36,4.941s-0.361-4.297,1.928-7.82
				c2.289-3.525,6.361-4.944,6.361-4.944S94.498,228.434,92.21,231.959z"/>
			<path fill="#95979A" d="M89.198,234.188c-1.153,1.775-3.203,2.489-3.203,2.489s-0.183-2.163,0.972-3.938
				c1.151-1.775,3.202-2.489,3.202-2.489S90.352,232.411,89.198,234.188z"/>
		</g>
		<path fill="none" stroke="#95979A" stroke-width="1.9693" stroke-linecap="round" stroke-miterlimit="10" d="M87.582,234.23
			c0,0-10.742,13.205-9.545,26.121c0.299,3.229,0.668,6.254-1.21,10.424"/>
	</g>
	<g>
		<g>
			<path fill="#95979A" d="M59.381,226.773c-0.862,4.054,0.989,7.884,0.989,7.884s3.248-2.744,4.11-6.8
				c0.861-4.056-0.989-7.885-0.989-7.885S60.243,222.719,59.381,226.773z"/>
			<path fill="#6F7173" d="M59.927,230.43c-0.435,2.041,0.498,3.969,0.498,3.969s1.636-1.381,2.069-3.424
				c0.434-2.041-0.498-3.971-0.498-3.971S60.361,228.387,59.927,230.43z"/>
		</g>
		<g>
			<path fill="#95979A" d="M63.198,234.52c-0.987,4.646,1.132,9.032,1.132,9.032s3.722-3.146,4.71-7.792
				c0.986-4.646-1.133-9.033-1.133-9.033S64.186,229.872,63.198,234.52z"/>
			<path fill="#6F7173" d="M63.823,238.707c-0.498,2.339,0.57,4.548,0.57,4.548s1.875-1.584,2.372-3.924
				c0.498-2.339-0.57-4.549-0.57-4.549S64.32,236.366,63.823,238.707z"/>
		</g>
		<g>
			<path fill="#95979A" d="M54.177,237.239c3.68,2.645,8.326,2.477,8.326,2.477s-1.32-4.458-5-7.104
				c-3.679-2.645-8.325-2.475-8.325-2.475S50.498,234.596,54.177,237.239z"/>
			<path fill="#6F7173" d="M58.076,238.3c1.853,1.332,4.192,1.247,4.192,1.247s-0.665-2.245-2.518-3.576
				c-1.853-1.332-4.193-1.246-4.193-1.246S56.222,236.968,58.076,238.3z"/>
		</g>
		<g>
			<path fill="#95979A" d="M66.998,242.082c-2.609,3.622-2.446,8.197-2.446,8.197s4.392-1.295,7.001-4.916
				c2.608-3.623,2.446-8.2,2.446-8.2S69.607,238.46,66.998,242.082z"/>
			<path fill="#6F7173" d="M65.95,245.921c-1.314,1.825-1.232,4.13-1.232,4.13s2.212-0.652,3.526-2.478s1.232-4.13,1.232-4.13
				S67.264,244.098,65.95,245.921z"/>
		</g>
		<g>
			<path fill="#95979A" d="M67.985,251.484c-3.245,3.211-3.856,7.854-3.856,7.854s4.648-0.563,7.895-3.774
				c3.244-3.209,3.855-7.853,3.855-7.853S71.229,248.273,67.985,251.484z"/>
			<path fill="#6F7173" d="M66.277,255.18c-1.633,1.615-1.941,3.954-1.941,3.954s2.34-0.284,3.975-1.899
				c1.634-1.617,1.941-3.955,1.941-3.955S67.911,253.563,66.277,255.18z"/>
		</g>
		<g>
			<path fill="#95979A" d="M57.719,249.613c3.023,3.326,7.568,4.125,7.568,4.125s-0.358-4.6-3.382-7.928
				c-3.024-3.328-7.568-4.127-7.568-4.127S54.695,246.284,57.719,249.613z"/>
			<path fill="#6F7173" d="M61.283,251.449c1.522,1.676,3.812,2.076,3.812,2.076s-0.181-2.315-1.704-3.992
				c-1.522-1.676-3.811-2.077-3.811-2.077S59.76,249.771,61.283,251.449z"/>
		</g>
		<g>
			<path fill="#95979A" d="M59.47,259.512c1.943,2.768,5.259,3.789,5.259,3.789s0.165-3.465-1.779-6.232
				c-1.943-2.768-5.259-3.789-5.259-3.789S57.527,256.744,59.47,259.512z"/>
			<path fill="#6F7173" d="M61.958,261.217c0.979,1.395,2.648,1.908,2.648,1.908s0.083-1.746-0.896-3.139
				c-0.979-1.396-2.648-1.909-2.648-1.909S60.979,259.822,61.958,261.217z"/>
		</g>
		<g>
			<path fill="#95979A" d="M50.722,224.753c2.289,3.524,6.36,4.942,6.36,4.942s0.361-4.295-1.928-7.82
				c-2.288-3.525-6.361-4.943-6.361-4.943S48.433,221.229,50.722,224.753z"/>
			<path fill="#6F7173" d="M53.734,226.982c1.152,1.774,3.204,2.488,3.204,2.488s0.181-2.162-0.972-3.938
				c-1.153-1.775-3.204-2.489-3.204-2.489S52.581,225.208,53.734,226.982z"/>
		</g>
		<path fill="none" stroke="#6F7173" stroke-width="1.9693" stroke-linecap="round" stroke-miterlimit="10" d="M55.349,227.025
			c0,0,10.743,13.205,9.547,26.121c-0.3,3.229-1.641,12.069,2.201,19.027"/>
	</g>
	<path fill="#363636" stroke="#363636" stroke-miterlimit="10" d="M81.615,297.563H59.61c-2.741,0-4.962-2.222-4.962-4.963v-24.263
		h31.931v24.263C86.579,295.342,84.357,297.563,81.615,297.563z"/>
</g>
</svg>
