<?xml version="1.0" encoding="utf-8"?>
<!-- Generator: Adobe Illustrator 16.0.0, SVG Export Plug-In . SVG Version: 6.00 Build 0)  -->
<!DOCTYPE svg PUBLIC "-//W3C//DTD SVG 1.1//EN" "http://www.w3.org/Graphics/SVG/1.1/DTD/svg11.dtd">
<svg version="1.1" id="Layer_1" xmlns="http://www.w3.org/2000/svg" xmlns:xlink="http://www.w3.org/1999/xlink" x="0px" y="0px"
	 width="144px" height="321px" viewBox="0 0 144 321" enable-background="new 0 0 144 321" xml:space="preserve">
<g>
	<rect x="73.042" y="134.103" fill="#58595B" width="14.694" height="144.301"/>
	<g>
		<path fill="#8F9194" d="M46.826,161.751c-3.212-0.028-3.978-10.341-3.997-19.921c-12.182-3.25-22.746-4.272-22.746-4.272
			s-9.833,41.06,2.653,59.173c8.686-2.736,25.339-7.166,27.933-1.858c2.067,4.229-7.757,8.418-16.272,11.167
			c15.864,7.303,37.96,4.8,37.96,4.8s15.841-33.261,3.032-51.215c-4.289-6.015-11.914-10.475-20.154-13.748
			C52.923,153.806,49.846,161.779,46.826,161.751z M35.061,175.722c-0.257,1.535-3.062,2.346-6.266,1.811
			c-3.204-0.536-5.593-2.217-5.336-3.751c0.257-1.535,3.063-2.346,6.266-1.809C32.929,172.508,35.318,174.187,35.061,175.722z
			 M67.252,167.087c-0.571,5.82-3.295,10.317-6.084,10.044c-2.789-0.274-4.587-5.214-4.016-11.035
			c0.571-5.82,3.295-10.316,6.084-10.043S67.824,161.266,67.252,167.087z"/>
		<path fill="none" stroke="#6B6C6F" stroke-width="1.1757" stroke-miterlimit="10" d="M22.956,141.577
			c0,0,64.679,71.236,53.707,93.795"/>
		<path fill="none" stroke="#6B6C6F" stroke-width="1.1757" stroke-miterlimit="10" d="M20.882,188.313
			c0,0,25.941-4.924,37.783-0.92"/>
		<path fill="none" stroke="#6B6C6F" stroke-width="1.1757" stroke-miterlimit="10" d="M19.927,158.102
			c0,0,14.781,0.35,19.802,3.517"/>
		<path fill="none" stroke="#6B6C6F" stroke-width="1.1757" stroke-miterlimit="10" d="M72.498,169.874
			c0,0,2.328,21.494-3.392,34.753"/>
		<path fill="none" stroke="#6B6C6F" stroke-width="1.1757" stroke-miterlimit="10" d="M54.578,154.25
			c0,0,0.511,13.999-3.742,21.911"/>
	</g>
	<path fill="none" stroke="#6B6C6F" stroke-width="2.3514" stroke-miterlimit="10" d="M72.967,231.606c0,0,3.655,6.074,15.381,7.752
		"/>
	<path fill="none" stroke="#6B6C6F" stroke-width="2.3514" stroke-miterlimit="10" d="M71.416,243.968
		c0,0,11.273,1.844,16.932,0.168"/>
	
		<line fill="none" stroke="#6B6C6F" stroke-width="2.3514" stroke-miterlimit="10" x1="73.042" y1="253.483" x2="87.736" y2="252.616"/>
	
		<line fill="none" stroke="#6B6C6F" stroke-width="2.3514" stroke-miterlimit="10" x1="87.736" y1="259.218" x2="74.184" y2="257.792"/>
	<path fill="#8F9194" d="M36.896,263.295c0,0-3.043-28.735,5.888-32.813c8.931-4.077,23.109,2.607,28.252,8.877
		c0,0-4.145,15.896-12.372,15.781C44.727,254.946,36.896,263.295,36.896,263.295z"/>
	<path fill="none" stroke="#6B6C6F" stroke-width="1.1757" stroke-miterlimit="10" d="M39.774,256.306
		c0,0,12.529-24.574,31.263-16.947c18.732,7.627,13.661,19.541,13.661,19.541"/>
	<path fill="none" stroke="#6B6C6F" stroke-width="1.1757" stroke-miterlimit="10" d="M58.666,250.675c0,0-0.268-9.691,3.537-12.705
		"/>
	<path fill="none" stroke="#6B6C6F" stroke-width="1.1757" stroke-miterlimit="10" d="M42.202,234.282c0,0,11.025-2.301,18.23,3.939
		"/>
	<path fill="none" stroke="#6B6C6F" stroke-width="1.1757" stroke-miterlimit="10" d="M51.317,242.483c0,0-0.997,7.4-0.882,11"/>
	<path fill="none" stroke="#6B6C6F" stroke-width="1.1757" stroke-miterlimit="10" d="M54.017,240.694c0,0-8.414-0.213-14.288,7.699
		"/>
	<path fill="none" stroke="#6B6C6F" stroke-width="2.3514" stroke-miterlimit="10" d="M80.969,267.694
		c0,0-12.814-7.506-7.927-37.276c1.685-10.256,14.694-37.565,14.694-63.827"/>
	<g>
		<path fill="#8F9194" d="M95.303,186.942c-5.968,2.369-11.488,5.6-14.595,9.955c-9.274,13,2.196,37.084,2.196,37.084
			s16,1.813,27.486-3.476c-6.166-1.989-13.279-5.022-11.783-8.086c1.879-3.844,13.938-0.636,20.228,1.347
			c9.041-13.117,1.921-42.849,1.921-42.849s-7.648,0.74-16.471,3.095c-0.014,6.938-0.568,14.402-2.895,14.424
			C99.204,198.458,96.977,192.685,95.303,186.942z M113.773,205.839c2.319-0.389,4.352,0.198,4.537,1.311
			c0.187,1.11-1.545,2.326-3.863,2.716c-2.319,0.388-4.352-0.198-4.537-1.312C109.725,207.442,111.454,206.228,113.773,205.839z
			 M89.508,194.312c2.02-0.198,3.992,3.059,4.406,7.272c0.413,4.215-0.889,7.792-2.908,7.99s-3.992-3.06-4.406-7.273
			C86.188,198.086,87.488,194.509,89.508,194.312z"/>
		<path fill="none" stroke="#6B6C6F" stroke-width="1.1757" stroke-miterlimit="10" d="M118.676,183.83
			c0,0-48.795,54.283-37.977,69.653"/>
		<path fill="none" stroke="#6B6C6F" stroke-width="1.1757" stroke-miterlimit="10" d="M120.177,217.672
			c0,0-18.784-3.565-27.358-0.667"/>
		<path fill="none" stroke="#6B6C6F" stroke-width="1.1757" stroke-miterlimit="10" d="M120.869,195.795
			c0,0-10.703,0.253-14.34,2.546"/>
		<path fill="none" stroke="#6B6C6F" stroke-width="1.1757" stroke-miterlimit="10" d="M82.802,204.319
			c0,0-1.687,15.563,2.456,25.164"/>
		<path fill="none" stroke="#6B6C6F" stroke-width="1.1757" stroke-miterlimit="10" d="M95.777,193.006
			c0,0-0.37,10.138,2.709,15.866"/>
	</g>
	<path fill="none" stroke="#6B6C6F" stroke-width="2.3514" stroke-miterlimit="10" d="M86.523,218.656
		c0,0,3.933,36.743-1.199,50.463"/>
	<rect x="56.392" y="267.472" fill="#58595B" width="44.956" height="14.815"/>
	<path fill="#58595B" d="M70.52,321h16.699c11.334-6.444,19.559-25.66,19.559-48.364H50.961C50.961,295.34,59.186,314.556,70.52,321
		z"/>
</g>
</svg>
