<?xml version="1.0" encoding="utf-8"?>
<!-- Generator: Adobe Illustrator 16.0.0, SVG Export Plug-In . SVG Version: 6.00 Build 0)  -->
<!DOCTYPE svg PUBLIC "-//W3C//DTD SVG 1.1//EN" "http://www.w3.org/Graphics/SVG/1.1/DTD/svg11.dtd">
<svg version="1.1" id="Layer_1" xmlns="http://www.w3.org/2000/svg" xmlns:xlink="http://www.w3.org/1999/xlink" x="0px" y="0px"
	 width="144px" height="321px" viewBox="0 0 144 321" enable-background="new 0 0 144 321" xml:space="preserve">
<g>
	<path fill="none" stroke="#95979A" stroke-width="1.9693" stroke-linecap="round" stroke-miterlimit="10" d="M58.042,208.93
		c0,0-3.275,29.836,4.63,40.403"/>
	<path fill="none" stroke="#95979A" stroke-width="1.9693" stroke-linecap="round" stroke-miterlimit="10" d="M75.58,216.684
		c0,0-3.275,29.834,4.631,40.401"/>
	<rect x="58.225" y="292.546" fill="#363636" width="35.384" height="8.454"/>
	<g>
		<g>
			<path fill="#6F7173" d="M97.328,190.085c1.426,6.71-1.637,13.046-1.637,13.046s-5.375-4.542-6.801-11.253
				c-1.43-6.709,1.635-13.047,1.635-13.047S95.902,183.374,97.328,190.085z"/>
			<path fill="#95979A" d="M96.424,196.134c0.719,3.38-0.822,6.57-0.822,6.57s-2.707-2.288-3.426-5.668
				c-0.719-3.378,0.824-6.57,0.824-6.57S95.707,192.755,96.424,196.134z"/>
		</g>
		<g>
			<path fill="#6F7173" d="M91.012,202.9c1.635,7.688-1.875,14.949-1.875,14.949s-6.16-5.207-7.794-12.896
				s1.875-14.948,1.875-14.948S89.377,195.212,91.012,202.9z"/>
			<path fill="#95979A" d="M89.977,209.832c0.822,3.872-0.941,7.527-0.941,7.527s-3.104-2.62-3.928-6.493
				c-0.82-3.871,0.943-7.527,0.943-7.527S89.154,205.96,89.977,209.832z"/>
		</g>
		<g>
			<path fill="#6F7173" stroke="#6F7173" stroke-miterlimit="10" d="M105.939,207.404c-6.09,4.378-13.777,4.099-13.777,4.099
				s2.184-7.378,8.273-11.755c6.088-4.378,13.777-4.098,13.777-4.098S112.029,203.027,105.939,207.404z"/>
			<path fill="#95979A" d="M99.488,209.159c-3.066,2.205-6.938,2.063-6.938,2.063s1.101-3.717,4.166-5.921
				c3.066-2.204,6.938-2.063,6.938-2.063S102.555,206.955,99.488,209.159z"/>
		</g>
		<g>
			<path fill="#6F7173" d="M84.723,215.419c4.316,5.994,4.049,13.567,4.049,13.567s-7.271-2.146-11.586-8.141
				c-4.317-5.994-4.049-13.568-4.049-13.568S80.404,209.425,84.723,215.419z"/>
			<path fill="#95979A" d="M86.457,221.771c2.174,3.02,2.039,6.832,2.039,6.832s-3.66-1.08-5.835-4.1
				c-2.175-3.018-2.039-6.833-2.039-6.833S84.282,218.753,86.457,221.771z"/>
		</g>
		<g>
			<path fill="#6F7173" d="M82.055,231.999c5.369,5.313,6.381,12.997,6.381,12.997s-7.691-0.936-13.063-6.245
				c-5.37-5.313-6.381-12.996-6.381-12.996S76.686,226.688,82.055,231.999z"/>
			<path fill="#95979A" d="M84.879,238.109c2.705,2.679,3.215,6.548,3.215,6.548s-3.875-0.47-6.578-3.146
				c-2.703-2.676-3.213-6.546-3.213-6.546S82.176,235.438,84.879,238.109z"/>
		</g>
		<g>
			<path fill="#6F7173" d="M100.791,223.999c-5.002,5.509-12.521,6.828-12.521,6.828s0.592-7.611,5.6-13.121
				c5.002-5.508,12.521-6.829,12.521-6.829S105.797,218.489,100.791,223.999z"/>
			<path fill="#95979A" d="M94.895,227.038c-2.52,2.772-6.307,3.438-6.307,3.438s0.299-3.832,2.818-6.606
				c2.52-2.772,6.309-3.438,6.309-3.438S97.416,224.266,94.895,227.038z"/>
		</g>
		<g>
			<path fill="#6F7173" d="M97.98,237.749c-3.217,4.58-8.703,6.271-8.703,6.271s-0.271-5.734,2.943-10.313
				c3.217-4.581,8.703-6.271,8.703-6.271S101.197,233.168,97.98,237.749z"/>
			<path fill="#95979A" d="M93.865,240.568c-1.619,2.308-4.383,3.158-4.383,3.158s-0.137-2.89,1.48-5.194
				c1.619-2.308,4.385-3.159,4.385-3.159S95.484,238.264,93.865,240.568z"/>
		</g>
		<g>
			<path fill="#6F7173" d="M111.658,186.742c-3.789,5.832-10.527,8.179-10.527,8.179s-0.596-7.108,3.191-12.942
				c3.789-5.834,10.527-8.183,10.527-8.183S115.445,180.907,111.658,186.742z"/>
			<path fill="#95979A" d="M106.674,190.432c-1.908,2.938-5.301,4.118-5.301,4.118s-0.303-3.581,1.607-6.521
				c1.906-2.938,5.301-4.118,5.301-4.118S108.582,187.491,106.674,190.432z"/>
		</g>
		<path fill="none" stroke="#95979A" stroke-width="1.9693" stroke-linecap="round" stroke-miterlimit="10" d="M104,190.503
			c0,0-17.777,21.854-15.797,43.229c0.494,5.345,1.105,10.349-2.002,17.25"/>
	</g>
	<g>
		<g>
			<path fill="#95979A" d="M57.33,178.161c-1.427,6.709,1.636,13.047,1.636,13.047s5.375-4.542,6.802-11.254
				c1.426-6.71-1.637-13.046-1.637-13.046S58.755,171.45,57.33,178.161z"/>
			<path fill="#6F7173" d="M58.232,184.21c-0.719,3.379,0.824,6.57,0.824,6.57s2.707-2.288,3.425-5.669
				c0.718-3.379-0.823-6.569-0.823-6.569S58.951,180.831,58.232,184.21z"/>
		</g>
		<g>
			<path fill="#95979A" d="M63.646,190.979c-1.634,7.688,1.874,14.948,1.874,14.948s6.159-5.204,7.794-12.895
				c1.634-7.688-1.875-14.949-1.875-14.949S65.28,183.288,63.646,190.979z"/>
			<path fill="#6F7173" d="M64.68,197.909c-0.823,3.87,0.944,7.526,0.944,7.526s3.102-2.623,3.924-6.494
				c0.824-3.871-0.944-7.526-0.944-7.526S65.503,194.036,64.68,197.909z"/>
		</g>
		<g>
			<path fill="#95979A" d="M48.716,195.48c6.09,4.375,13.778,4.099,13.778,4.099s-2.185-7.377-8.274-11.755
				c-6.089-4.379-13.778-4.098-13.778-4.098S42.627,191.104,48.716,195.48z"/>
			<path fill="#6F7173" d="M55.168,197.234c3.066,2.205,6.938,2.063,6.938,2.063s-1.1-3.715-4.167-5.92
				c-3.066-2.204-6.938-2.063-6.938-2.063S52.102,195.032,55.168,197.234z"/>
		</g>
		<g>
			<path fill="#95979A" d="M69.934,203.495c-4.317,5.994-4.048,13.567-4.048,13.567s7.268-2.146,11.586-8.14
				c4.314-5.995,4.047-13.569,4.047-13.569S74.252,197.501,69.934,203.495z"/>
			<path fill="#6F7173" d="M68.2,209.85c-2.175,3.021-2.04,6.834-2.04,6.834s3.661-1.08,5.835-4.101
				c2.174-3.021,2.04-6.833,2.04-6.833S70.374,206.83,68.2,209.85z"/>
		</g>
		<g>
			<path fill="#95979A" d="M71.568,219.059c-5.37,5.313-6.381,12.998-6.381,12.998s7.692-0.935,13.063-6.248
				c5.369-5.313,6.381-12.996,6.381-12.996S76.938,213.743,71.568,219.059z"/>
			<path fill="#6F7173" d="M68.741,225.169c-2.703,2.677-3.212,6.545-3.212,6.545s3.873-0.469,6.578-3.146
				c2.704-2.676,3.211-6.545,3.211-6.545S71.446,222.493,68.741,225.169z"/>
		</g>
		<g>
			<path fill="#95979A" d="M54.578,215.959c5.004,5.507,12.525,6.826,12.525,6.826s-0.593-7.611-5.598-13.12
				c-5.004-5.508-12.525-6.828-12.525-6.828S49.573,210.449,54.578,215.959z"/>
			<path fill="#6F7173" d="M60.476,218.997c2.52,2.772,6.308,3.438,6.308,3.438s-0.299-3.832-2.819-6.606
				c-2.52-2.772-6.307-3.438-6.307-3.438S57.957,216.223,60.476,218.997z"/>
		</g>
		<g>
			<path fill="#95979A" d="M57.477,232.34c3.216,4.58,8.704,6.271,8.704,6.271s0.272-5.733-2.945-10.313
				c-3.216-4.58-8.703-6.271-8.703-6.271S54.26,227.76,57.477,232.34z"/>
			<path fill="#6F7173" d="M61.593,235.161c1.619,2.307,4.383,3.157,4.383,3.157s0.137-2.889-1.482-5.193
				c-1.621-2.309-4.383-3.159-4.383-3.159S59.972,232.854,61.593,235.161z"/>
		</g>
		<g>
			<path fill="#95979A" d="M42.999,174.814c3.788,5.834,10.526,8.183,10.526,8.183s0.598-7.108-3.191-12.942
				c-3.787-5.834-10.527-8.183-10.527-8.183S39.21,168.982,42.999,174.814z"/>
			<path fill="#6F7173" d="M47.983,178.507c1.907,2.938,5.301,4.119,5.301,4.119s0.3-3.58-1.607-6.521
				c-1.909-2.938-5.302-4.119-5.302-4.119S46.076,175.568,47.983,178.507z"/>
		</g>
		<path fill="none" stroke="#6F7173" stroke-width="1.9693" stroke-linecap="round" stroke-miterlimit="10" d="M50.656,178.579
			c0,0,17.778,21.854,15.799,43.229c-0.496,5.344-2.716,19.976,3.643,31.487"/>
	</g>
	<path fill="#363636" stroke="#363636" stroke-miterlimit="10" d="M94.125,295.312H57.708c-4.536,0-8.211-3.676-8.211-8.211v-40.151
		h52.844v40.151C102.34,291.636,98.662,295.312,94.125,295.312z"/>
</g>
</svg>
