<?xml version="1.0" encoding="utf-8"?>
<!-- Generator: Adobe Illustrator 16.0.0, SVG Export Plug-In . SVG Version: 6.00 Build 0)  -->
<!DOCTYPE svg PUBLIC "-//W3C//DTD SVG 1.1//EN" "http://www.w3.org/Graphics/SVG/1.1/DTD/svg11.dtd">
<svg version="1.1" id="Layer_1" xmlns="http://www.w3.org/2000/svg" xmlns:xlink="http://www.w3.org/1999/xlink" x="0px" y="0px"
	 width="144px" height="321px" viewBox="0 0 144 321" enable-background="new 0 0 144 321" xml:space="preserve">
<g>
	<path fill="none" stroke="#95979A" stroke-width="1.9693" stroke-linecap="round" stroke-miterlimit="10" d="M49.012,181.809
		c0,0-4.24,38.625,5.993,52.307"/>
	<path fill="none" stroke="#95979A" stroke-width="1.9693" stroke-linecap="round" stroke-miterlimit="10" d="M71.717,191.846
		c0,0-4.24,38.621,5.995,52.305"/>
	<rect x="49.249" y="290.056" fill="#363636" width="45.808" height="10.944"/>
	<g>
		<g>
			<path fill="#6F7173" d="M99.87,157.412c1.846,8.688-2.119,16.889-2.119,16.889s-6.958-5.88-8.804-14.566
				c-1.848-8.686,2.117-16.891,2.117-16.891S98.023,148.725,99.87,157.412z"/>
			<path fill="#95979A" d="M98.701,165.243c0.929,4.374-1.066,8.506-1.066,8.506s-3.504-2.962-4.435-7.338
				c-0.931-4.374,1.065-8.507,1.065-8.507S97.771,160.869,98.701,165.243z"/>
		</g>
		<g>
			<path fill="#6F7173" d="M91.693,174.004c2.115,9.953-2.428,19.354-2.428,19.354s-7.976-6.739-10.091-16.692
				c-2.114-9.953,2.429-19.354,2.429-19.354S89.577,164.05,91.693,174.004z"/>
			<path fill="#95979A" d="M90.354,182.979c1.065,5.012-1.222,9.746-1.222,9.746s-4.017-3.396-5.082-8.408
				c-1.063-5.012,1.224-9.744,1.224-9.744S89.288,177.964,90.354,182.979z"/>
		</g>
		<g>
			<path fill="#6F7173" stroke="#6F7173" stroke-miterlimit="10" d="M111.02,179.835c-7.883,5.666-17.836,5.306-17.836,5.306
				s2.828-9.553,10.709-15.219c7.885-5.668,17.838-5.304,17.838-5.304S118.902,174.169,111.02,179.835z"/>
			<path fill="#95979A" d="M102.667,182.105c-3.97,2.854-8.981,2.672-8.981,2.672s1.424-4.811,5.396-7.663
				c3.97-2.854,8.981-2.673,8.981-2.673S106.637,179.253,102.667,182.105z"/>
		</g>
		<g>
			<path fill="#6F7173" d="M83.552,190.209c5.589,7.76,5.241,17.564,5.241,17.564s-9.411-2.775-14.999-10.537
				c-5.591-7.762-5.241-17.564-5.241-17.564S77.962,182.449,83.552,190.209z"/>
			<path fill="#95979A" d="M85.797,198.436c2.814,3.906,2.641,8.846,2.641,8.846s-4.737-1.397-7.554-5.307
				c-2.815-3.908-2.64-8.848-2.64-8.848S82.982,194.523,85.797,198.436z"/>
		</g>
		<g>
			<path fill="#6F7173" d="M80.098,211.673c6.95,6.878,8.262,16.825,8.262,16.825s-9.961-1.207-16.91-8.084
				c-6.95-6.88-8.26-16.825-8.26-16.825S73.146,204.795,80.098,211.673z"/>
			<path fill="#95979A" d="M83.756,219.587c3.5,3.464,4.16,8.476,4.16,8.476s-5.016-0.607-8.518-4.072
				c-3.498-3.463-4.158-8.473-4.158-8.473S80.254,216.123,83.756,219.587z"/>
		</g>
		<g>
			<path fill="#6F7173" d="M104.355,201.314c-6.479,7.134-16.213,8.84-16.213,8.84s0.768-9.854,7.246-16.984
				c6.479-7.13,16.213-8.84,16.213-8.84S110.835,194.186,104.355,201.314z"/>
			<path fill="#95979A" d="M96.721,205.251c-3.263,3.59-8.164,4.45-8.164,4.45s0.387-4.962,3.647-8.555
				c3.263-3.592,8.167-4.451,8.167-4.451S99.984,201.659,96.721,205.251z"/>
		</g>
		<g>
			<path fill="#6F7173" d="M100.715,219.117c-4.163,5.929-11.267,8.115-11.267,8.115s-0.353-7.424,3.812-13.354
				c4.163-5.93,11.268-8.119,11.268-8.119S104.879,213.188,100.715,219.117z"/>
			<path fill="#95979A" d="M95.387,222.77c-2.096,2.984-5.674,4.088-5.674,4.088s-0.177-3.738,1.92-6.727
				c2.098-2.986,5.674-4.089,5.674-4.089S97.484,219.782,95.387,222.77z"/>
		</g>
		<g>
			<path fill="#6F7173" d="M118.422,153.084c-4.904,7.551-13.629,10.589-13.629,10.589s-0.771-9.205,4.132-16.756
				c4.905-7.552,13.628-10.591,13.628-10.591S123.325,145.531,118.422,153.084z"/>
			<path fill="#95979A" d="M111.969,157.857c-2.471,3.806-6.861,5.334-6.861,5.334s-0.391-4.637,2.08-8.439
				c2.471-3.802,6.862-5.332,6.862-5.332S114.439,154.057,111.969,157.857z"/>
		</g>
		<path fill="none" stroke="#95979A" stroke-width="1.9693" stroke-linecap="round" stroke-miterlimit="10" d="M108.509,157.953
			c0,0-23.016,28.291-20.452,55.962c0.643,6.918,1.432,13.396-2.591,22.332"/>
	</g>
	<g>
		<g>
			<path fill="#95979A" d="M48.09,141.977c-1.848,8.686,2.117,16.891,2.117,16.891s6.959-5.881,8.806-14.569
				c1.846-8.687-2.119-16.889-2.119-16.889S49.936,133.288,48.09,141.977z"/>
			<path fill="#6F7173" d="M49.258,149.807c-0.931,4.375,1.067,8.508,1.067,8.508s3.504-2.963,4.434-7.338
				c0.929-4.375-1.066-8.506-1.066-8.506S50.188,145.434,49.258,149.807z"/>
		</g>
		<g>
			<path fill="#95979A" d="M56.267,158.566c-2.116,9.953,2.426,19.354,2.426,19.354s7.974-6.737,10.09-16.692
				c2.115-9.953-2.427-19.354-2.427-19.354S58.382,148.613,56.267,158.566z"/>
			<path fill="#6F7173" d="M57.605,167.541c-1.065,5.012,1.223,9.745,1.223,9.745s4.016-3.396,5.08-8.406
				c1.066-5.013-1.222-9.746-1.222-9.746S58.671,162.525,57.605,167.541z"/>
		</g>
		<g>
			<path fill="#95979A" d="M36.939,164.396c7.884,5.666,17.837,5.307,17.837,5.307s-2.828-9.551-10.712-15.219
				c-7.883-5.666-17.836-5.303-17.836-5.303S29.057,158.73,36.939,164.396z"/>
			<path fill="#6F7173" d="M45.292,166.67c3.97,2.854,8.982,2.672,8.982,2.672s-1.424-4.81-5.395-7.664
				c-3.97-2.854-8.982-2.67-8.982-2.67S41.321,163.816,45.292,166.67z"/>
		</g>
		<g>
			<path fill="#95979A" d="M64.407,174.771c-5.589,7.764-5.24,17.565-5.24,17.565s9.408-2.776,14.999-10.536
				c5.589-7.761,5.241-17.564,5.241-17.564S69.996,167.014,64.407,174.771z"/>
			<path fill="#6F7173" d="M62.162,182.998c-2.815,3.909-2.64,8.848-2.64,8.848s4.739-1.398,7.554-5.308
				c2.814-3.909,2.64-8.847,2.64-8.847S64.977,179.09,62.162,182.998z"/>
		</g>
		<g>
			<path fill="#95979A" d="M66.522,194.918c-6.951,6.879-8.262,16.826-8.262,16.826s9.959-1.206,16.911-8.086
				c6.951-6.879,8.261-16.824,8.261-16.824S73.473,188.04,66.522,194.918z"/>
			<path fill="#6F7173" d="M62.863,202.831c-3.5,3.464-4.159,8.474-4.159,8.474s5.014-0.605,8.516-4.07
				c3.5-3.463,4.159-8.474,4.159-8.474S66.364,199.367,62.863,202.831z"/>
		</g>
		<g>
			<path fill="#95979A" d="M44.527,190.907c6.478,7.131,16.214,8.839,16.214,8.839s-0.768-9.854-7.246-16.986
				c-6.479-7.13-16.215-8.839-16.215-8.839S38.049,183.773,44.527,190.907z"/>
			<path fill="#6F7173" d="M52.163,194.841c3.262,3.593,8.166,4.45,8.166,4.45s-0.388-4.962-3.65-8.555
				c-3.262-3.59-8.164-4.45-8.164-4.45S48.901,191.248,52.163,194.841z"/>
		</g>
		<g>
			<path fill="#95979A" d="M48.28,212.114c4.163,5.93,11.268,8.116,11.268,8.116s0.353-7.424-3.813-13.354
				c-4.163-5.929-11.267-8.118-11.267-8.118S44.116,206.188,48.28,212.114z"/>
			<path fill="#6F7173" d="M53.608,215.768c2.097,2.985,5.675,4.09,5.675,4.09s0.177-3.74-1.92-6.728
				c-2.098-2.985-5.674-4.089-5.674-4.089S51.511,212.779,53.608,215.768z"/>
		</g>
		<g>
			<path fill="#95979A" d="M29.537,137.646c4.904,7.551,13.627,10.59,13.627,10.59s0.773-9.204-4.131-16.756
				c-4.903-7.553-13.628-10.592-13.628-10.592S24.633,130.095,29.537,137.646z"/>
			<path fill="#6F7173" d="M35.99,142.424c2.469,3.803,6.863,5.333,6.863,5.333s0.389-4.635-2.081-8.44
				c-2.471-3.803-6.863-5.333-6.863-5.333S33.521,138.621,35.99,142.424z"/>
		</g>
		<path fill="none" stroke="#6F7173" stroke-width="1.9693" stroke-linecap="round" stroke-miterlimit="10" d="M39.45,142.518
			c0,0,23.015,28.293,20.452,55.963c-0.642,6.918-3.516,25.856,4.716,40.764"/>
	</g>
	<path fill="#363636" stroke="#363636" stroke-miterlimit="10" d="M95.727,293.636H48.579c-5.872,0-10.631-4.759-10.631-10.631
		v-51.979h68.409v51.979C106.357,288.877,101.598,293.636,95.727,293.636z"/>
</g>
</svg>
