<?xml version="1.0" encoding="utf-8"?>
<!-- Generator: Adobe Illustrator 16.0.0, SVG Export Plug-In . SVG Version: 6.00 Build 0)  -->
<!DOCTYPE svg PUBLIC "-//W3C//DTD SVG 1.1//EN" "http://www.w3.org/Graphics/SVG/1.1/DTD/svg11.dtd">
<svg version="1.1" id="Layer_1" xmlns="http://www.w3.org/2000/svg" xmlns:xlink="http://www.w3.org/1999/xlink" x="0px" y="0px"
	 width="144px" height="321px" viewBox="0 0 144 321" enable-background="new 0 0 144 321" xml:space="preserve">
<g>
	<rect x="75.193" y="101.238" fill="#58595B" width="15.703" height="154.233"/>
	<g>
		<path fill="#8F9194" d="M47.172,130.79c-3.433-0.032-4.252-11.053-4.272-21.292c-13.02-3.474-24.312-4.566-24.312-4.566
			s-10.51,43.884,2.836,63.245c9.284-2.924,27.083-7.657,29.855-1.983c2.209,4.521-8.291,8.996-17.392,11.937
			c16.956,7.806,40.572,5.129,40.572,5.129s16.932-35.55,3.241-54.74c-4.583-6.429-12.732-11.196-21.541-14.694
			C53.689,122.297,50.399,130.82,47.172,130.79z M34.598,145.723c-0.275,1.642-3.273,2.506-6.698,1.936
			c-3.425-0.574-5.978-2.368-5.703-4.01c0.274-1.642,3.273-2.506,6.697-1.935C32.318,142.286,34.872,144.081,34.598,145.723z
			 M69.005,136.493c-0.61,6.22-3.521,11.028-6.503,10.735c-2.98-0.293-4.903-5.574-4.293-11.795
			c0.611-6.221,3.521-11.028,6.503-10.735C67.693,124.99,69.614,130.27,69.005,136.493z"/>
		<path fill="none" stroke="#6B6C6F" stroke-width="1.1757" stroke-miterlimit="10" d="M21.659,109.227
			c0,0,69.131,76.142,57.403,100.25"/>
		<path fill="none" stroke="#6B6C6F" stroke-width="1.1757" stroke-miterlimit="10" d="M19.442,159.182
			c0,0,27.727-5.265,40.383-0.982"/>
		<path fill="none" stroke="#6B6C6F" stroke-width="1.1757" stroke-miterlimit="10" d="M18.421,126.889
			c0,0,15.799,0.374,21.165,3.758"/>
		<path fill="none" stroke="#6B6C6F" stroke-width="1.1757" stroke-miterlimit="10" d="M74.611,139.472
			c0,0,2.488,22.971-3.625,37.145"/>
		<path fill="none" stroke="#6B6C6F" stroke-width="1.1757" stroke-miterlimit="10" d="M55.458,122.772c0,0,0.546,14.963-4,23.419"
			/>
	</g>
	<path fill="none" stroke="#6B6C6F" stroke-width="2.3514" stroke-miterlimit="10" d="M75.111,205.453c0,0,3.908,6.492,16.438,8.286
		"/>
	<path fill="none" stroke="#6B6C6F" stroke-width="2.3514" stroke-miterlimit="10" d="M73.455,218.665c0,0,12.049,1.971,18.095,0.18
		"/>
	
		<line fill="none" stroke="#6B6C6F" stroke-width="2.3514" stroke-miterlimit="10" x1="75.193" y1="228.836" x2="90.896" y2="227.91"/>
	
		<line fill="none" stroke="#6B6C6F" stroke-width="2.3514" stroke-miterlimit="10" x1="90.896" y1="234.965" x2="76.413" y2="233.439"/>
	<path fill="#8F9194" d="M36.559,239.322c0,0-3.252-30.715,6.293-35.069c9.546-4.356,24.699,2.785,30.197,9.485
		c0,0-4.43,16.99-13.225,16.867C44.928,230.398,36.559,239.322,36.559,239.322z"/>
	<path fill="none" stroke="#6B6C6F" stroke-width="1.1757" stroke-miterlimit="10" d="M39.635,231.854
		c0,0,13.392-26.269,33.415-18.112c20.021,8.151,14.603,20.885,14.603,20.885"/>
	<path fill="none" stroke="#6B6C6F" stroke-width="1.1757" stroke-miterlimit="10" d="M59.825,225.834
		c0,0-0.285-10.357,3.781-13.579"/>
	<path fill="none" stroke="#6B6C6F" stroke-width="1.1757" stroke-miterlimit="10" d="M42.23,208.313c0,0,11.785-2.457,19.485,4.213
		"/>
	<path fill="none" stroke="#6B6C6F" stroke-width="1.1757" stroke-miterlimit="10" d="M51.973,217.08c0,0-1.066,7.909-0.943,11.756"
		/>
	<path fill="none" stroke="#6B6C6F" stroke-width="1.1757" stroke-miterlimit="10" d="M54.857,215.167c0,0-8.993-0.228-15.271,8.229
		"/>
	<path fill="none" stroke="#6B6C6F" stroke-width="2.3514" stroke-miterlimit="10" d="M83.665,244.025
		c0,0-13.696-8.022-8.472-39.844c1.8-10.963,15.703-40.15,15.703-68.222"/>
	<g>
		<path fill="#8F9194" d="M98.984,157.715c-6.377,2.533-12.278,5.984-15.598,10.643c-9.912,13.896,2.348,39.638,2.348,39.638
			s17.102,1.937,29.377-3.716c-6.59-2.127-14.192-5.368-12.594-8.644c2.008-4.106,14.896-0.68,21.619,1.438
			c9.662-14.021,2.053-45.797,2.053-45.797s-8.176,0.791-17.604,3.306c-0.017,7.416-0.606,15.396-3.093,15.418
			C103.154,170.021,100.773,163.852,98.984,157.715z M118.729,177.912c2.479-0.416,4.649,0.211,4.852,1.398
			c0.195,1.188-1.65,2.486-4.13,2.902c-2.479,0.413-4.652-0.213-4.851-1.4C114.4,179.626,116.249,178.326,118.729,177.912z
			 M92.791,165.59c2.158-0.212,4.268,3.271,4.711,7.774c0.441,4.505-0.951,8.327-3.109,8.54c-2.158,0.212-4.267-3.271-4.709-7.774
			C89.242,169.625,90.633,165.802,92.791,165.59z"/>
		<path fill="none" stroke="#6B6C6F" stroke-width="1.1757" stroke-miterlimit="10" d="M123.968,154.389
			c0,0-52.153,58.021-40.592,74.447"/>
		<path fill="none" stroke="#6B6C6F" stroke-width="1.1757" stroke-miterlimit="10" d="M125.572,190.561
			c0,0-20.078-3.812-29.241-0.713"/>
		<path fill="none" stroke="#6B6C6F" stroke-width="1.1757" stroke-miterlimit="10" d="M126.313,167.177
			c0,0-11.438,0.271-15.326,2.724"/>
		<path fill="none" stroke="#6B6C6F" stroke-width="1.1757" stroke-miterlimit="10" d="M85.623,176.288
			c0,0-1.803,16.636,2.626,26.896"/>
		<path fill="none" stroke="#6B6C6F" stroke-width="1.1757" stroke-miterlimit="10" d="M99.493,164.193
			c0,0-0.396,10.836,2.896,16.961"/>
	</g>
	<path fill="none" stroke="#6B6C6F" stroke-width="2.3514" stroke-miterlimit="10" d="M89.604,191.611
		c0,0,4.201,39.271-1.283,53.938"/>
	<rect x="57.396" y="243.786" fill="#58595B" width="48.049" height="15.836"/>
	<path fill="#58595B" d="M72.496,301h17.852c12.112-6.888,20.902-27.426,20.902-51.693H51.592
		C51.592,273.574,60.383,294.112,72.496,301z"/>
</g>
</svg>
