<?xml version="1.0" encoding="utf-8"?>
<!-- Generator: Adobe Illustrator 16.0.0, SVG Export Plug-In . SVG Version: 6.00 Build 0)  -->
<!DOCTYPE svg PUBLIC "-//W3C//DTD SVG 1.1//EN" "http://www.w3.org/Graphics/SVG/1.1/DTD/svg11.dtd">
<svg version="1.1" id="Layer_1" xmlns="http://www.w3.org/2000/svg" xmlns:xlink="http://www.w3.org/1999/xlink" x="0px" y="0px"
	 width="144px" height="321px" viewBox="0 0 144 321" enable-background="new 0 0 144 321" xml:space="preserve">
<g>
	<rect x="75.831" y="60.619" fill="#58595B" width="18.899" height="185.596"/>
	<g>
		<path fill="#8F9194" d="M42.113,96.178c-4.131-0.038-5.117-13.3-5.141-25.622c-15.667-4.18-29.255-5.495-29.255-5.495
			s-12.647,52.81,3.413,76.106c11.172-3.52,32.591-9.217,35.926-2.39c2.658,5.441-9.977,10.827-20.929,14.364
			c20.404,9.394,48.823,6.174,48.823,6.174s20.374-42.779,3.899-65.873C73.332,85.706,63.527,79.97,52.928,75.76
			C49.955,85.959,45.997,96.215,42.113,96.178z M26.981,114.147c-0.331,1.975-3.938,3.017-8.06,2.327
			c-4.121-0.689-7.193-2.85-6.863-4.824c0.33-1.975,3.939-3.016,8.059-2.326C24.239,110.013,27.312,112.172,26.981,114.147z
			 M68.386,103.041c-0.735,7.486-4.238,13.27-7.825,12.918c-3.587-0.353-5.901-6.706-5.166-14.193
			c0.735-7.486,4.238-13.27,7.825-12.918C66.807,89.2,69.119,95.554,68.386,103.041z"/>
		<path fill="none" stroke="#6B6C6F" stroke-width="1.1757" stroke-miterlimit="10" d="M11.412,70.231
			c0,0,83.189,91.625,69.076,120.636"/>
		<path fill="none" stroke="#6B6C6F" stroke-width="1.1757" stroke-miterlimit="10" d="M8.745,130.342
			c0,0,33.365-6.333,48.595-1.183"/>
		<path fill="none" stroke="#6B6C6F" stroke-width="1.1757" stroke-miterlimit="10" d="M7.516,91.484c0,0,19.011,0.45,25.468,4.523"
			/>
		<path fill="none" stroke="#6B6C6F" stroke-width="1.1757" stroke-miterlimit="10" d="M75.132,106.626
			c0,0,2.994,27.645-4.362,44.698"/>
		<path fill="none" stroke="#6B6C6F" stroke-width="1.1757" stroke-miterlimit="10" d="M52.083,86.531
			c0,0,0.658,18.005-4.813,28.181"/>
	</g>
	<path fill="none" stroke="#6B6C6F" stroke-width="2.3514" stroke-miterlimit="10" d="M75.734,186.023c0,0,4.701,7.813,19.781,9.972
		"/>
	<path fill="none" stroke="#6B6C6F" stroke-width="2.3514" stroke-miterlimit="10" d="M73.74,201.923c0,0,14.498,2.372,21.775,0.216
		"/>
	
		<line fill="none" stroke="#6B6C6F" stroke-width="2.3514" stroke-miterlimit="10" x1="75.831" y1="214.162" x2="94.73" y2="213.047"/>
	
		<line fill="none" stroke="#6B6C6F" stroke-width="2.3514" stroke-miterlimit="10" x1="94.73" y1="221.537" x2="77.3" y2="219.703"/>
	<path fill="#8F9194" d="M29.342,226.781c0,0-3.914-36.959,7.573-42.202c11.487-5.244,29.722,3.354,36.338,11.416
		c0,0-5.331,20.444-15.913,20.298C39.413,216.044,29.342,226.781,29.342,226.781z"/>
	<path fill="none" stroke="#6B6C6F" stroke-width="1.1757" stroke-miterlimit="10" d="M33.043,217.792
		c0,0,16.115-31.606,40.21-21.797c24.093,9.812,17.57,25.132,17.57,25.132"/>
	<path fill="none" stroke="#6B6C6F" stroke-width="1.1757" stroke-miterlimit="10" d="M57.34,210.55c0,0-0.344-12.465,4.549-16.341"
		/>
	<path fill="none" stroke="#6B6C6F" stroke-width="1.1757" stroke-miterlimit="10" d="M36.166,189.466
		c0,0,14.181-2.958,23.447,5.068"/>
	<path fill="none" stroke="#6B6C6F" stroke-width="1.1757" stroke-miterlimit="10" d="M47.89,200.018c0,0-1.282,9.518-1.134,14.146"
		/>
	<path fill="none" stroke="#6B6C6F" stroke-width="1.1757" stroke-miterlimit="10" d="M51.361,197.714
		c0,0-10.821-0.272-18.377,9.901"/>
	<path fill="none" stroke="#6B6C6F" stroke-width="2.3514" stroke-miterlimit="10" d="M86.025,232.439
		c0,0-16.48-9.653-10.194-47.943c2.166-13.189,18.899-48.316,18.899-82.093"/>
	<g>
		<path fill="#8F9194" d="M104.463,128.579c-7.676,3.048-14.775,7.202-18.771,12.804c-11.928,16.723,2.824,47.697,2.824,47.697
			s20.58,2.331,35.354-4.471c-7.933-2.561-17.08-6.461-15.155-10.399c2.416-4.942,17.926-0.815,26.016,1.729
			c11.629-16.869,2.472-55.108,2.472-55.108s-9.839,0.952-21.185,3.979c-0.019,8.923-0.73,18.525-3.724,18.553
			C109.48,143.391,106.615,135.963,104.463,128.579z M128.221,152.883c2.982-0.5,5.596,0.256,5.836,1.686
			c0.237,1.43-1.988,2.994-4.971,3.494c-2.982,0.498-5.598-0.256-5.836-1.688S125.236,153.382,128.221,152.883z M97.009,138.056
			c2.599-0.255,5.136,3.934,5.668,9.354c0.531,5.421-1.144,10.021-3.741,10.275c-2.597,0.256-5.134-3.935-5.666-9.354
			C92.736,142.911,94.412,138.311,97.009,138.056z"/>
		<path fill="none" stroke="#6B6C6F" stroke-width="1.1757" stroke-miterlimit="10" d="M134.523,124.576
			c0,0-62.758,69.816-48.844,89.586"/>
		<path fill="none" stroke="#6B6C6F" stroke-width="1.1757" stroke-miterlimit="10" d="M136.455,168.104
			c0,0-24.16-4.586-35.188-0.857"/>
		<path fill="none" stroke="#6B6C6F" stroke-width="1.1757" stroke-miterlimit="10" d="M137.346,139.964
			c0,0-13.767,0.326-18.441,3.275"/>
		<path fill="none" stroke="#6B6C6F" stroke-width="1.1757" stroke-miterlimit="10" d="M88.384,150.93c0,0-2.169,20.02,3.159,32.365
			"/>
		<path fill="none" stroke="#6B6C6F" stroke-width="1.1757" stroke-miterlimit="10" d="M105.073,136.377
			c0,0-0.478,13.038,3.485,20.407"/>
	</g>
	<path fill="none" stroke="#6B6C6F" stroke-width="2.3514" stroke-miterlimit="10" d="M93.171,169.368
		c0,0,5.058,47.258-1.543,64.903"/>
	<rect x="54.416" y="232.15" fill="#58595B" width="57.82" height="19.059"/>
	<path fill="#58595B" d="M72.587,301h21.479c14.576-8.288,25.154-33.003,25.154-62.205H47.432
		C47.432,267.997,58.009,292.712,72.587,301z"/>
</g>
</svg>
