<?xml version="1.0" encoding="utf-8"?>
<!-- Generator: Adobe Illustrator 16.0.0, SVG Export Plug-In . SVG Version: 6.00 Build 0)  -->
<!DOCTYPE svg PUBLIC "-//W3C//DTD SVG 1.0//EN" "http://www.w3.org/TR/2001/REC-SVG-20010904/DTD/svg10.dtd">
<svg version="1.0" id="Layer_1" xmlns="http://www.w3.org/2000/svg" xmlns:xlink="http://www.w3.org/1999/xlink" x="0px" y="0px"
	 width="69px" height="82px" viewBox="0 0 69 82" style="enable-background:new 0 0 69 82;" xml:space="preserve">
<g>
	<polyline style="fill:#BAC9C0;" points="37.27,21.89 57.8,34.06 57.8,65.99 16.74,66.07 16.74,34.15 	"/>
	<g id="outline">
		<path style="fill:#010101;stroke:#BAC9C0;stroke-width:0.25;stroke-miterlimit:10;" d="M42.81,40.88c-0.83,0-1.63,0.33-2.22,0.92
			l-0.97,0.97l-0.97-0.97c-1.22-1.22-3.21-1.22-4.43,0s-1.22,3.21,0,4.43l0,0l4.84,4.84c0.31,0.31,0.81,0.31,1.12,0c0,0,0,0,0,0
			l4.84-4.84c1.22-1.22,1.22-3.21,0-4.43C44.44,41.21,43.64,40.88,42.81,40.88z M43.91,45.11L43.91,45.11l-4.28,4.28l-4.28-4.28
			c-0.6-0.62-0.59-1.6,0.03-2.2c0.6-0.59,1.57-0.59,2.17,0l1.52,1.52c0.31,0.31,0.81,0.31,1.12,0l0,0l1.53-1.52
			c0.61-0.6,1.6-0.59,2.2,0.03C44.5,43.55,44.5,44.51,43.91,45.11L43.91,45.11z"/>
		<path style="fill:#010101;stroke:#BAC9C0;stroke-width:0.25;stroke-miterlimit:10;" d="M55.03,28.67L33.71,16.04
			c-0.25-0.15-0.56-0.15-0.81,0L11.58,28.76c-0.24,0.14-0.38,0.4-0.38,0.68v33.16c0,0.44,0.35,0.79,0.79,0.79h0l42.64-0.09
			c0.44,0,0.79-0.35,0.79-0.79V29.35C55.42,29.07,55.27,28.81,55.03,28.67z M26.99,41.26v2.3c0,0.3,0.17,0.57,0.44,0.71l2.75,1.38
			c1.04,0.51,1.78,1.48,2,2.62l0.35,1.77c0.03,0.15,0.11,0.29,0.22,0.4l0.08,0.08c0.57,0.57,0.62,1.47,0.12,2.1l-0.25,0.32l0,0
			l-0.25,0.32c-1.25,1.56-3.53,1.81-5.09,0.56c-0.1-0.08-0.2-0.17-0.3-0.27l-0.29-0.29c-0.31-0.31-0.81-0.31-1.12,0
			s-0.31,0.81,0,1.12l0,0l0.29,0.29c2.03,2.03,5.33,2.03,7.36,0h0l0.98,1.23c0.1,0.13,0.24,0.22,0.4,0.27l0.21,0.06
			c2.52,0.73,4.37,2.89,4.69,5.5H21.26l-0.31-1c-1.64-5.31-0.86-11.06,2.13-15.75l0.63-0.99c0.02-0.02,0.03-0.05,0.04-0.07
			l0.18-0.37C24.53,42.35,25.67,41.5,26.99,41.26z M35.35,54.72l-1.03-1.29c0.84-1.21,0.72-2.85-0.28-3.93l-0.31-1.54
			c-0.32-1.62-1.37-2.99-2.84-3.72l-2.32-1.16V40.7l3.23-0.29c0.27-0.03,0.51-0.19,0.63-0.43l0.79-1.58
			c0.19-0.39,0.03-0.86-0.36-1.06c-0.39-0.19-0.85-0.03-1.05,0.35l-0.59,1.19l-7.78,0.71l-0.88-1.32l0.1-0.07
			c1.21-0.81,1.75-2.3,1.34-3.7l2.55-1.27c0.17-0.09,0.31-0.23,0.38-0.41l0.97-2.42c0.3-0.75,0.92-1.34,1.69-1.6l1.88-0.63
			c0.29-0.1,0.59-0.16,0.89-0.19c0.32,0.36,0.6,0.75,0.85,1.17l0.8,1.34c0.57,0.96,0.88,2.05,0.88,3.17v1.65
			c0,2.18,1.77,3.95,3.95,3.95s3.95-1.77,3.95-3.95c0-0.32-0.02-0.64-0.06-0.96c0.32,0.41,0.62,0.83,0.91,1.26
			c2.57,3.87,4.2,8.28,4.74,12.89c0.47,4,0.12,8.05-1.04,11.9l-0.41,1.35l-5.76,0.01C40.85,58.44,38.54,55.66,35.35,54.72z
			 M21.53,36.72c-0.24-0.36-0.14-0.85,0.22-1.1c0.03-0.02,0.06-0.04,0.08-0.05l0.71-0.36c0.08,0.65-0.22,1.29-0.76,1.65l-0.1,0.07
			L21.53,36.72z M39.13,30.68c1.32,1.17,2.08,2.85,2.08,4.61c0,0.9-0.5,1.72-1.31,2.12c-0.67,0.33-1.45,0.33-2.12,0
			c-0.8-0.4-1.31-1.22-1.31-2.12v-1.65c0-1.4-0.38-2.78-1.1-3.98l-0.8-1.34c-0.02-0.04-0.05-0.07-0.07-0.11
			c1.32,0.36,2.57,0.95,3.68,1.75C38.5,30.19,38.81,30.43,39.13,30.68z M53.84,61.73l-5.26,0.01l0.27-0.89
			c1.22-4.06,1.6-8.33,1.1-12.54c-0.58-4.86-2.29-9.51-5-13.58c-1.32-1.99-2.94-3.76-4.8-5.25c-0.19-0.17-0.39-0.32-0.6-0.47
			c-0.02-0.02-0.05-0.03-0.08-0.05c-0.13-0.09-0.25-0.19-0.38-0.28c-1.51-1.09-3.24-1.84-5.07-2.2c-1.01-0.2-2.06-0.14-3.05,0.19
			l-1.88,0.63c-1.21,0.4-2.19,1.32-2.66,2.51l-0.86,2.14l-4.45,2.22c-1.17,0.59-1.64,2.01-1.06,3.18c0.04,0.09,0.09,0.17,0.15,0.25
			l0.59,0.88l0,0l0,0l1.58,2.37c0.16,0.24,0.44,0.37,0.73,0.35l0.7-0.06c-0.54,0.49-0.98,1.07-1.3,1.72l-0.17,0.33l-0.61,0.96
			c-3.23,5.07-4.08,11.31-2.3,17.06l0.19,0.61l-6.85,0.01V29.89l20.53-12.25L53.84,29.8V61.73z"/>
		<circle style="fill:#010101;stroke:#BAC9C0;stroke-width:0.25;stroke-miterlimit:10;" cx="29.36" cy="49.09" r="1.09"/>
		<circle style="fill:#010101;stroke:#BAC9C0;stroke-width:0.25;stroke-miterlimit:10;" cx="29.85" cy="33" r="1.09"/>
	</g>
</g>
</svg>
