<?xml version="1.0" encoding="utf-8"?>
<!-- Generator: Adobe Illustrator 16.0.0, SVG Export Plug-In . SVG Version: 6.00 Build 0)  -->
<!DOCTYPE svg PUBLIC "-//W3C//DTD SVG 1.0//EN" "http://www.w3.org/TR/2001/REC-SVG-20010904/DTD/svg10.dtd">
<svg version="1.0" id="Layer_1" xmlns="http://www.w3.org/2000/svg" xmlns:xlink="http://www.w3.org/1999/xlink" x="0px" y="0px"
	 width="69px" height="82px" viewBox="0 0 69 82" style="enable-background:new 0 0 69 82;" xml:space="preserve">
<g id="_x30_01---Gardening_1_">
	<path id="Shape_4_" style="fill:#010101;" d="M10.15,65.35c4.77,4.77,21.41-3.65,27.56-9.8c5.69-5.69,4.14-10.58,1.35-14.26
		l3.4-3.4c1.77,0.26,3.55-0.33,4.82-1.59l11.3-11.3c2.23-2.23,2.23-5.84,0-8.07c-2.23-2.23-5.84-2.23-8.07,0l-11.3,11.3
		c-1.26,1.27-1.85,3.05-1.59,4.82l-3.4,3.4c-3.68-2.79-8.58-4.34-14.26,1.34C13.8,43.94,5.38,60.58,10.15,65.35z M36.57,41.85
		c-4.34,3.49-6.91,4.8-7.79,4.87c0.07-0.88,1.37-3.44,4.87-7.78C34.71,39.82,35.68,40.79,36.57,41.85L36.57,41.85z M52.12,18.53
		c1.34-1.34,3.51-1.34,4.84,0c1.34,1.34,1.34,3.51,0,4.84l-11.3,11.3c-1.34,1.34-3.5,1.34-4.84,0c-1.34-1.34-1.34-3.51,0-4.85
		L52.12,18.53z M38.48,35.41c0.42,0.64,0.98,1.19,1.61,1.61l-2.52,2.52c-0.54-0.58-1.02-1.06-1.61-1.62L38.48,35.41z M31.81,37.57
		c-6.93,8.61-5.38,10.15-4.71,10.83c0.67,0.67,2.22,2.22,10.83-4.71c2.27,3.63,1.65,6.77-1.83,10.25
		c-6.18,6.18-21.26,12.87-24.33,9.8c-3.07-3.07,3.62-18.15,9.8-24.33C25.04,35.93,28.19,35.3,31.81,37.57L31.81,37.57z"/>
	<path id="Oval_1_" style="fill:#010101;" d="M55.35,20.15c0.45,0.45,0.45,1.17,0,1.62c-0.45,0.45-1.17,0.45-1.62,0
		c-0.45-0.45-0.45-1.17,0-1.62C54.18,19.7,54.9,19.7,55.35,20.15z"/>
</g>
</svg>
