<?xml version="1.0" encoding="utf-8"?>
<!-- Generator: Adobe Illustrator 16.0.0, SVG Export Plug-In . SVG Version: 6.00 Build 0)  -->
<!DOCTYPE svg PUBLIC "-//W3C//DTD SVG 1.0//EN" "http://www.w3.org/TR/2001/REC-SVG-20010904/DTD/svg10.dtd">
<svg version="1.0" id="Layer_1" xmlns="http://www.w3.org/2000/svg" xmlns:xlink="http://www.w3.org/1999/xlink" x="0px" y="0px"
	 width="438px" height="139px" viewBox="0 0 438 139" style="enable-background:new 0 0 438 139;" xml:space="preserve">
<g>
	<g>
		<g>
			<g>
				<path style="fill:#323232;" d="M63.56,53.83c0.2-0.53,0.41-1.05,0.63-1.56c-0.26-1.15-1.63-6.16-6.35-9.38
					c-4.03-2.75-9.42-3.54-16.05-2.36C42.97,44.24,48.18,56.84,63.56,53.83z"/>
				<path style="fill:#323232;" d="M81.37,82.86l0.27-2.03H47.4l3.67,27.16h26.91l0.4-2.94l0.33-1.97l0.5-3.38l0.34-2.28l0.56-3.8
					l0.34-2.3l1.17-9.99"/>
				<path style="fill:#323232;" d="M72.5,96.04c0.16,0.36,0.52,0.57,0.88,0.57"/>
				<rect x="44.12" y="78.54" style="fill:#323232;" width="40.8" height="2.8"/>
				<path style="fill:#323232;" d="M77.41,39.03c-0.16-0.05-0.21-0.01-0.23,0l-0.52,0.31c-0.43,0.24-0.84,0.51-1.24,0.82l-1.17,0.89
					l-0.71,0.62c-0.35,0.3-0.69,0.62-1.01,0.97c-0.13,0.14-0.26,0.28-0.4,0.42c-0.23,0.23-0.46,0.47-0.67,0.74
					c-2.92,3.31-5.56,8.45-7.27,14.16c-1.76,5.69-2.63,11.5-3.04,15.38c-0.12,1.1-0.21,2.18-0.3,3.25h2.72
					c0.08-0.98,0.16-1.97,0.27-2.96c0.4-3.75,1.24-9.38,2.94-14.87c1.59-5.31,4.11-10.24,6.73-13.18c0.16-0.22,0.39-0.46,0.62-0.69
					c0.1-0.11,0.21-0.21,0.3-0.31c0.31-0.35,0.64-0.67,0.98-0.95l0.95-0.81l0.62-0.45c0.36-0.28,0.75-0.54,1.15-0.76l0.35-0.21
					c0.05-0.07,0.17-0.67-0.18-1.49C78.07,39.43,77.69,39.12,77.41,39.03z"/>
				<path style="fill:#323232;" d="M68.59,63.85c-0.47,1.15-0.89,2.28-1.28,3.38c13.63,6.71,21.29-1.35,23.43-4.18
					C77.54,56.93,69.71,62.91,68.59,63.85z"/>
			</g>
			<g>
				<path style="fill:#323232;" d="M77,42.11c-0.49,0-0.95-0.35-1.18-0.93c-0.31-0.81-0.49-1.18,0.21-1.44
					c0.24-0.09,12-7.79,16.3-25.03c0.21-0.86,0.95-1.33,1.63-1.07c0.69,0.27,1.07,1.18,0.85,2.04
					c-4.66,18.65-16.76,25.98-17.27,26.28C77.38,42.06,77.19,42.11,77,42.11z"/>
			</g>
			<path style="fill:#323232;" d="M78.02,44.37c-0.08,0.43-0.17,0.85-0.27,1.26c0.35,0.84,2.06,4.44,6.05,6.25
				c3.41,1.54,7.6,1.42,12.45-0.36C94.86,48.88,89.25,40.05,78.02,44.37z"/>
			<path style="fill:#323232;" d="M83.21,31.29c0.25-0.35,0.51-0.7,0.77-1.04c0.03-0.91-0.02-4.89-2.89-8.2
				c-2.46-2.82-6.31-4.46-11.46-4.87C69.78,20.18,71.2,30.54,83.21,31.29z"/>
			<g>
				<g>
					<path style="fill:#323232;" d="M88.48,131.38H11.2c-1.66,0-3-1.34-3-3V72.17c0-0.65,0.21-1.28,0.6-1.79l31.47-42.15
						c0.57-0.76,1.46-1.21,2.4-1.21h18.88v6H44.18L14.2,73.17v52.21h72.75l26.63-36.62V33.02H98.9v-6h17.69c1.66,0,3,1.34,3,3v59.72
						c0,0.63-0.2,1.25-0.57,1.76l-28.1,38.64C90.34,130.92,89.44,131.38,88.48,131.38z"/>
				</g>
			</g>
			<path style="fill:#323232;" d="M95.68,17.56c-0.37,1.18-0.69,2.35-0.99,3.47c14.15,5.53,21.09-3.17,22.99-6.16
				C104,9.9,96.71,16.53,95.68,17.56z"/>
		</g>
		<g>
			<g>
				<path style="fill:#323232;" d="M152.79,74.83h-0.4c-1.16,1.69-2.6,2.91-4.33,3.66s-3.84,1.13-6.32,1.13
					c-4.13,0-7.38-1.52-9.75-4.56c-2.37-3.04-3.56-7.62-3.56-13.75c0-6.26,1.2-10.87,3.59-13.85c2.4-2.97,5.81-4.46,10.25-4.46
					c2.31,0,4.4,0.47,6.29,1.4c1.88,0.93,3.4,2.31,4.56,4.13h0.4l0.73-4.73h4.39v46.53h-5.86V74.83z M150.63,71.43
					c1.44-2.22,2.16-5.5,2.16-9.85v-0.27c0-4.44-0.73-7.79-2.2-10.05c-1.46-2.26-3.75-3.39-6.86-3.39c-2.22,0-4.01,0.43-5.36,1.3
					c-1.35,0.87-2.34,2.27-2.96,4.23c-0.62,1.95-0.93,4.59-0.93,7.92v0.27c0,3.29,0.31,5.88,0.93,7.79c0.62,1.91,1.6,3.28,2.93,4.13
					c1.33,0.84,3.13,1.26,5.39,1.26C146.89,74.76,149.19,73.65,150.63,71.43z"/>
				<path style="fill:#323232;" d="M168.87,76.79c-1.89-1.89-2.83-4.92-2.83-9.09v-23.9h5.86v23.5c0,2.8,0.62,4.74,1.86,5.82
					c1.24,1.09,3.04,1.63,5.39,1.63c1.69,0,3.24-0.41,4.66-1.23s2.55-2.01,3.4-3.56c0.84-1.55,1.26-3.37,1.26-5.46v-20.7h5.86v35.01
					h-4.46l-0.67-4.73h-0.47c-2.57,3.68-6.5,5.52-11.78,5.52C173.45,79.62,170.76,78.68,168.87,76.79z"/>
				<path style="fill:#323232;" d="M212.01,78.22c-1.89-0.93-3.41-2.31-4.56-4.13h-0.4l-0.73,4.73h-4.39V30.69h5.86V47.8h0.4
					c1.15-1.69,2.6-2.91,4.33-3.66s3.84-1.13,6.32-1.13c4.13,0,7.38,1.52,9.75,4.56c2.37,3.04,3.56,7.62,3.56,13.75
					c0,6.26-1.2,10.87-3.59,13.85c-2.4,2.97-5.81,4.46-10.25,4.46C215.99,79.62,213.89,79.15,212.01,78.22z M222.22,73.5
					c1.33-0.84,2.31-2.22,2.93-4.13c0.62-1.91,0.93-4.5,0.93-7.79v-0.27c0-3.33-0.31-5.97-0.93-7.92c-0.62-1.95-1.61-3.36-2.96-4.23
					c-1.35-0.87-3.14-1.3-5.36-1.3c-3.11,0-5.39,1.13-6.86,3.39c-1.46,2.26-2.2,5.62-2.2,10.05v0.27c0,4.35,0.72,7.63,2.16,9.85
					c1.44,2.22,3.74,3.33,6.89,3.33C219.1,74.76,220.89,74.34,222.22,73.5z"/>
				<path style="fill:#323232;" d="M239.53,75.13c-2.71-3-4.06-7.6-4.06-13.81c0-6.21,1.35-10.82,4.06-13.81s6.75-4.49,12.12-4.49
					s9.41,1.5,12.12,4.49s4.06,7.6,4.06,13.81c0,6.21-1.35,10.82-4.06,13.81c-2.71,3-6.75,4.49-12.12,4.49
					S242.24,78.12,239.53,75.13z M259.37,71.67c1.6-2.06,2.4-5.42,2.4-10.08v-0.53c0-4.66-0.8-8.02-2.4-10.08
					c-1.6-2.06-4.17-3.1-7.72-3.1s-6.12,1.03-7.72,3.1c-1.6,2.06-2.4,5.42-2.4,10.08v0.53c0,4.66,0.8,8.02,2.4,10.08
					s4.17,3.09,7.72,3.09S257.77,73.73,259.37,71.67z"/>
				<path style="fill:#323232;" d="M269.69,43.81h6.19l6.19,17.51c0.58,1.64,1.24,3.68,2,6.12c0.75,2.44,1.24,4.06,1.46,4.86h0.33
					c0.22-0.75,0.69-2.32,1.4-4.69c0.71-2.37,1.38-4.47,2-6.29l6.13-17.51h5.86l-12.85,35.01h-5.86L269.69,43.81z"/>
				<path style="fill:#323232;" d="M307.5,75.16c-2.75-2.97-4.13-7.59-4.13-13.85s1.38-10.87,4.13-13.85
					c2.75-2.97,6.94-4.46,12.58-4.46c5.06,0,8.84,1.34,11.35,4.03c2.51,2.69,3.76,7,3.76,12.95v2.93h-25.76
					c0.22,4.04,1.19,7.02,2.9,8.95c1.71,1.93,4.29,2.89,7.75,2.89c2.8,0,5.06-0.64,6.79-1.93c1.73-1.29,2.6-3.26,2.6-5.92h5.72
					c0,4.08-1.41,7.22-4.23,9.42c-2.82,2.2-6.45,3.29-10.88,3.29C314.44,79.62,310.25,78.13,307.5,75.16z M329.06,58.05
					c0-6.79-3-10.18-8.99-10.18c-3.33,0-5.83,0.8-7.49,2.4s-2.67,4.19-3.03,7.79H329.06z"/>
				<path style="fill:#323232;" d="M340.91,43.81h4.46l0.67,5.26h0.4c0.67-1.73,1.66-3.17,3-4.33c1.33-1.15,3.08-1.73,5.26-1.73
					c0.75,0,1.43,0.08,2.03,0.23c0.6,0.16,0.96,0.26,1.1,0.3v5.66h-2.46c-2.49,0-4.54,0.72-6.16,2.16c-1.62,1.44-2.43,3.7-2.43,6.76
					v20.7h-5.86V43.81z"/>
				<path style="fill:#323232;" d="M363.21,75.16c-2.4-2.97-3.59-7.59-3.59-13.85c0-6.12,1.19-10.71,3.56-13.75
					c2.37-3.04,5.62-4.56,9.75-4.56c2.48,0,4.59,0.38,6.32,1.13c1.73,0.75,3.17,1.98,4.33,3.66h0.4V30.69h5.86v48.13h-4.39
					l-0.73-4.73h-0.4c-1.15,1.82-2.67,3.19-4.56,4.13c-1.89,0.93-3.98,1.4-6.29,1.4C369.02,79.62,365.61,78.13,363.21,75.16z
					 M381.82,71.43c1.44-2.22,2.16-5.5,2.16-9.85v-0.27c0-4.44-0.73-7.79-2.2-10.05c-1.46-2.26-3.75-3.39-6.86-3.39
					c-2.22,0-4.01,0.43-5.36,1.3c-1.35,0.87-2.34,2.27-2.96,4.23c-0.62,1.95-0.93,4.59-0.93,7.92v0.27c0,3.29,0.31,5.88,0.93,7.79
					c0.62,1.91,1.6,3.28,2.93,4.13c1.33,0.84,3.13,1.26,5.39,1.26C378.08,74.76,380.37,73.65,381.82,71.43z"/>
				<path style="fill:#323232;" d="M399.69,75.16c-2.75-2.97-4.13-7.59-4.13-13.85s1.38-10.87,4.13-13.85
					c2.75-2.97,6.94-4.46,12.58-4.46c5.06,0,8.84,1.34,11.35,4.03c2.51,2.69,3.76,7,3.76,12.95v2.93h-25.76
					c0.22,4.04,1.19,7.02,2.9,8.95c1.71,1.93,4.29,2.89,7.75,2.89c2.8,0,5.06-0.64,6.79-1.93c1.73-1.29,2.6-3.26,2.6-5.92h5.72
					c0,4.08-1.41,7.22-4.23,9.42c-2.82,2.2-6.45,3.29-10.88,3.29C406.63,79.62,402.44,78.13,399.69,75.16z M421.26,58.05
					c0-6.79-3-10.18-8.99-10.18c-3.33,0-5.83,0.8-7.49,2.4s-2.67,4.19-3.03,7.79H421.26z"/>
			</g>
		</g>
	</g>
</g>
</svg>
