<?xml version="1.0" encoding="utf-8"?>
<!-- Generator: Adobe Illustrator 16.0.0, SVG Export Plug-In . SVG Version: 6.00 Build 0)  -->
<!DOCTYPE svg PUBLIC "-//W3C//DTD SVG 1.0//EN" "http://www.w3.org/TR/2001/REC-SVG-20010904/DTD/svg10.dtd">
<svg version="1.0" id="Layer_1" xmlns="http://www.w3.org/2000/svg" xmlns:xlink="http://www.w3.org/1999/xlink" x="0px" y="0px"
	 width="576.14px" height="597px" viewBox="0 28.45 576.14 597" style="enable-background:new 0 28.45 576.14 597;"
	 xml:space="preserve">
<g>
	<path d="M523.32,533.56L378.97,392.37c66.43-86.02,50.54-209.59-35.47-276.02C257.48,49.92,133.9,65.8,67.48,151.82
		c-66.43,86.02-50.55,209.59,35.47,276.02c69.17,53.42,165.29,54.81,235.98,3.43L484.3,573.45c10.89,10.9,28.56,10.91,39.46,0.02
		s10.91-28.56,0.02-39.46C523.63,533.86,523.48,533.71,523.32,533.56L523.32,533.56z M223.94,413.06
		c-77.45,0-140.23-62.78-140.23-140.23c0-77.45,62.78-140.23,140.23-140.23c77.45,0,140.23,62.78,140.23,140.23
		C364.08,350.24,301.35,412.97,223.94,413.06z"/>
</g>
</svg>
