<?xml version="1.0" encoding="utf-8"?>
<!-- Generator: Adobe Illustrator 16.0.0, SVG Export Plug-In . SVG Version: 6.00 Build 0)  -->
<!DOCTYPE svg PUBLIC "-//W3C//DTD SVG 1.0//EN" "http://www.w3.org/TR/2001/REC-SVG-20010904/DTD/svg10.dtd">
<svg version="1.0" id="Layer_1" xmlns="http://www.w3.org/2000/svg" xmlns:xlink="http://www.w3.org/1999/xlink" x="0px" y="0px"
	 width="69px" height="82px" viewBox="0 0 69 82" style="enable-background:new 0 0 69 82;" xml:space="preserve">
<g transform="translate(1 1)">
	<path style="fill:none;stroke:#010101;stroke-linecap:round;stroke-linejoin:round;" d="M15.41,40.34
		c0-10.05,8.15-18.21,18.21-18.21c10.06,0,18.21,8.15,18.21,18.21c0,10.06-8.15,18.21-18.21,18.21
		C23.56,58.55,15.41,50.4,15.41,40.34z M33.61,22.14V10.98 M46.49,27.47l7.89-7.89 M51.82,40.34h11.16 M46.49,53.22l7.89,7.89
		 M33.61,58.55v11.16 M20.74,53.22l-7.89,7.89 M15.41,40.34H4.25 M20.74,27.47l-7.89-7.89"/>
</g>
</svg>
