<?xml version="1.0" encoding="utf-8"?>
<!-- Generator: Adobe Illustrator 16.0.0, SVG Export Plug-In . SVG Version: 6.00 Build 0)  -->
<!DOCTYPE svg PUBLIC "-//W3C//DTD SVG 1.0//EN" "http://www.w3.org/TR/2001/REC-SVG-20010904/DTD/svg10.dtd">
<svg version="1.0" id="Layer_1" xmlns="http://www.w3.org/2000/svg" xmlns:xlink="http://www.w3.org/1999/xlink" x="0px" y="0px"
	 width="387px" height="529px" viewBox="120.14 -124.55 387 529" style="enable-background:new 120.14 -124.55 387 529;"
	 xml:space="preserve">
<title>1</title>
<g>
	<path d="M312.64,109.33c-88.9,0-161.22,60.93-161.22,135.82v112.21c0,6.85,5.55,12.4,12.4,12.4h297.64c6.85,0,12.4-5.55,12.4-12.4
		V245.15C473.86,170.26,401.53,109.33,312.64,109.33z M449.06,344.96H176.22v-99.81c0-61.21,61.2-111.02,136.42-111.02
		c75.22,0,136.42,49.81,136.42,111.02V344.96z M312.64,84.53c47.95,0,86.81-38.87,86.81-86.81S360.59-89.1,312.64-89.1
		c-47.94,0-86.81,38.87-86.81,86.81C225.88,45.64,264.72,84.47,312.64,84.53z M312.64-64.29c34.25,0,62.01,27.76,62.01,62.01
		c0,34.25-27.76,62.01-62.01,62.01s-62.01-27.76-62.01-62.01C250.67-36.51,278.41-64.25,312.64-64.29z"/>
</g>
</svg>
